#N canvas 0 22 412 279 10;
#X obj 30 55 inlet;
#X obj 30 165 random;
#X obj 95 55 inlet;
#X obj 144 55 inlet;
#X obj 144 126 + 1;
#X obj 95 148 -;
#X obj 30 186 +;
#X obj 30 228 outlet;
#X obj 95 126 t b f;
#X obj 95 79 f \$1;
#X obj 144 79 f \$2;
#X obj 95 102 * 1e+06;
#X obj 144 102 * 1e+06;
#X obj 30 207 * 1e-06;
#X text 19 13 random number generator with settable range and float
output;
#X obj 209 55 loadbang;
#X obj 30 101 bang;
#X text 19 23 ============================================================
;
#X connect 0 0 16 0;
#X connect 1 0 6 0;
#X connect 2 0 9 0;
#X connect 3 0 10 0;
#X connect 4 0 5 0;
#X connect 5 0 1 1;
#X connect 6 0 13 0;
#X connect 8 0 5 0;
#X connect 8 1 5 1;
#X connect 9 0 11 0;
#X connect 10 0 12 0;
#X connect 11 0 6 1;
#X connect 11 0 8 0;
#X connect 12 0 4 0;
#X connect 13 0 7 0;
#X connect 15 0 9 0;
#X connect 15 0 10 0;
#X connect 16 0 1 0;
