#N canvas 0 22 154 201 10;
#X obj 28 134 f;
#X obj 54 134 +;
#X obj 28 113 t b f;
#X obj 74 113 t f f;
#X obj 28 74 route clear;
#X obj 54 156 outlet;
#X obj 28 53 inlet;
#X text 29 13 accumulate values;
#X connect 0 0 1 0;
#X connect 1 0 0 1;
#X connect 1 0 5 0;
#X connect 2 0 0 0;
#X connect 2 1 1 1;
#X connect 3 0 0 1;
#X connect 3 1 1 1;
#X connect 4 0 3 0;
#X connect 4 1 2 0;
#X connect 6 0 4 0;
