#N canvas 0 22 693 563 10;
#X obj 51 447 vcf~ 100;
#X obj 112 268 loadbang;
#X msg 112 289 1;
#X obj 112 310 metro;
#X obj 193 267 * 100;
#X obj 152 309 * 0.3;
#X obj 193 287 + 10;
#N canvas 994 970 402 231 Q 0;
#X text 186 130 << upper Q changes with moistness;
#X obj 115 89 f;
#X obj 115 110 pack f f;
#X obj 115 66 t b f;
#X obj 14 56 + 1;
#X obj 115 12 inlet interval;
#X obj 116 195 outlet;
#X obj 14 36 * 9;
#X obj 116 156 line 1;
#X msg 115 130 \$1 \, 2 \$2;
#X obj 14 12 inlet intensity;
#X connect 1 0 2 0;
#X connect 2 0 9 0;
#X connect 3 0 1 0;
#X connect 3 1 2 1;
#X connect 4 0 1 1;
#X connect 5 0 3 0;
#X connect 7 0 4 0;
#X connect 8 0 6 0;
#X connect 9 0 8 0;
#X connect 10 0 7 0;
#X restore 96 421 pd Q;
#N canvas 340 458 295 359 freq 0;
#X obj 161 92 inlet interval;
#X obj 161 250 pack f f f;
#X obj 161 116 t b b f;
#X obj 161 296 line~;
#X obj 161 320 outlet~;
#X obj 188 229 f 5000;
#X obj 161 209 f 100;
#X msg 161 270 \$1 \, \$2 \$3;
#X obj 20 32 inlet freq-lower;
#X obj 130 32 inlet freq-upper;
#X connect 0 0 2 0;
#X connect 1 0 7 0;
#X connect 2 0 6 0;
#X connect 2 1 5 0;
#X connect 2 2 1 2;
#X connect 3 0 4 0;
#X connect 5 0 1 1;
#X connect 6 0 1 0;
#X connect 7 0 3 0;
#X connect 8 0 6 1;
#X connect 9 0 5 1;
#X restore 73 366 pd freq;
#X obj 51 469 hip~ 200;
#X obj 112 331 k.randgen 3 12;
#X text 112 448 gurgle simulation using bandpass filter;
#X obj 51 79 inlet~ source;
#X obj 51 511 outlet~;
#X text 35 12 'bubble modulator' - modulates source based on simple
bubbling/gurgling simulation;
#X text 35 36 ============================;
#X obj 548 79 inlet liquid-volume;
#X obj 398 79 inlet freq-range-upper;
#X obj 249 79 inlet freq-range-lower;
#X obj 143 79 inlet intensity;
#X obj 193 245 r \$0-lv;
#X obj 548 102 s \$0-lv;
#X obj 398 101 s \$0-fu;
#X obj 249 101 s \$0-fl;
#X obj 143 101 s \$0-i;
#X obj 73 190 r \$0-fl;
#X obj 92 214 r \$0-fu;
#X obj 96 398 r \$0-i;
#X obj 334 516 outlet;
#X text 379 516 use this for control-rate modulation;
#X connect 0 0 9 0;
#X connect 1 0 2 0;
#X connect 2 0 3 0;
#X connect 3 0 10 0;
#X connect 4 0 6 0;
#X connect 5 0 10 1;
#X connect 6 0 5 0;
#X connect 6 0 10 2;
#X connect 7 0 0 2;
#X connect 8 0 0 1;
#X connect 9 0 13 0;
#X connect 10 0 3 1;
#X connect 10 0 7 1;
#X connect 10 0 8 2;
#X connect 10 0 28 0;
#X connect 12 0 0 0;
#X connect 16 0 21 0;
#X connect 17 0 22 0;
#X connect 18 0 23 0;
#X connect 19 0 24 0;
#X connect 20 0 4 0;
#X connect 25 0 8 0;
#X connect 26 0 8 1;
#X connect 27 0 7 0;
