#N canvas 641 251 286 338 10;
#X obj 40 51 inlet;
#X obj 82 101 < \$1;
#X obj 40 73 t f f f;
#X obj 40 163 * 0;
#X obj 82 162 * \$1;
#X obj 40 185 +;
#X obj 40 253 * 0;
#X obj 40 275 +;
#X obj 82 252 * \$2;
#X obj 40 297 outlet;
#X obj 112 101 > \$2;
#X obj 55 132 == 0;
#X obj 55 215 == 0;
#X text 39 12 k.clamp;
#X text 39 22 -------;
#X obj 175 51 inlet;
#X obj 225 51 inlet;
#X connect 0 0 2 0;
#X connect 1 0 4 0;
#X connect 1 0 11 0;
#X connect 2 0 3 0;
#X connect 2 1 1 0;
#X connect 2 2 10 0;
#X connect 3 0 5 0;
#X connect 4 0 5 1;
#X connect 5 0 6 0;
#X connect 6 0 7 0;
#X connect 7 0 9 0;
#X connect 8 0 7 1;
#X connect 10 0 12 0;
#X connect 10 0 8 0;
#X connect 11 0 3 1;
#X connect 12 0 6 1;
#X connect 15 0 1 1;
#X connect 15 0 4 1;
#X connect 16 0 10 1;
#X connect 16 0 8 1;
