#N canvas 889 -1084 346 442 10;
#X obj 61 191 >;
#X obj 126 102 inlet trig-up;
#X obj 216 102 inlet trig-down;
#X obj 238 174 sel 0;
#X obj 238 153 f \$1;
#X obj 278 174 sel 0;
#X obj 238 132 loadbang;
#X obj 34 332 *;
#X obj 111 225 >;
#X obj 34 124 t f f f;
#X obj 61 237 -;
#X obj 61 213 change;
#X obj 61 259 sel 1;
#X obj 111 271 -;
#X obj 111 247 change;
#X obj 111 293 sel -1;
#X msg 61 281 1;
#X msg 111 315 0;
#X obj 278 153 f \$2;
#X obj 34 70 inlet;
#X obj 34 394 outlet;
#X text 30 25 hysteresis / schmitt trigger;
#X text 30 35 ============================;
#X connect 0 0 11 0;
#X connect 1 0 0 1;
#X connect 2 0 8 1;
#X connect 3 1 0 1;
#X connect 4 0 3 0;
#X connect 5 1 8 1;
#X connect 6 0 4 0;
#X connect 6 0 18 0;
#X connect 7 0 20 0;
#X connect 8 0 14 0;
#X connect 9 0 7 0;
#X connect 9 1 0 0;
#X connect 9 2 8 0;
#X connect 10 0 12 0;
#X connect 11 0 10 0;
#X connect 11 0 10 1;
#X connect 12 0 16 0;
#X connect 13 0 15 0;
#X connect 14 0 13 0;
#X connect 14 0 13 1;
#X connect 15 0 17 0;
#X connect 16 0 7 1;
#X connect 17 0 7 1;
#X connect 18 0 5 0;
#X connect 19 0 9 0;
