#N canvas 988 181 706 557 10;
#X obj 218 421 sig~;
#X obj 28 421 sig~;
#X obj 598 421 sig~;
#X obj 598 360 *;
#X obj 598 446 lop~ 5;
#X obj 28 398 * 0.001;
#X obj 218 446 lop~ 5;
#X obj 28 446 lop~ 5;
#X obj 28 488 outlet~ hstep;
#X obj 218 488 outlet~ s;
#X obj 408 488 outlet~ r;
#X obj 598 488 outlet~ b;
#X obj 598 381 clip 0.15 4;
#X obj 28 337 -;
#X msg 28 318 1 \$1;
#X obj 28 356 * 45;
#X obj 28 375 + 5;
#X obj 455 341 * 30;
#X obj 455 361 + 10;
#X obj 455 405 -;
#X obj 454 320 t f f;
#X obj 489 384 t f f;
#X obj 218 397 + 2;
#X obj 218 377 * 18;
#X obj 489 342 * 5;
#X obj 489 361 + 1;
#X obj 218 356 -;
#X msg 218 337 1 \$1;
#X obj 454 298 sqrt;
#X obj 408 426 *~ 0;
#X obj 408 446 +~ 0;
#X obj 28 295 sqrt;
#X text 27 20 Controller for Lorenz Oscillator;
#X text 27 30 ================================;
#X text 27 43 This patch maps parameters for a discrete-space Lorenz
Oscillator in such a way that stability is maintained for the vast
majority of the parameter space and parameters have a somewhat 'perceptually
orthographic' characterestic;
#X obj 29 147 inlet p1;
#X obj 99 147 inlet p2;
#X obj 169 147 inlet p3;
#X obj 239 147 inlet p4;
#X obj 239 169 s \$0-p4;
#X obj 29 169 s \$0-p1;
#X obj 99 169 s \$0-p2;
#X obj 169 169 s \$0-p3;
#X obj 408 278 sig~;
#X obj 408 303 lop~ 5;
#X obj 408 245 r \$0-p1;
#X obj 598 245 r \$0-p2;
#X obj 218 246 r \$0-p3;
#X obj 28 246 r \$0-p4;
#X obj 454 276 r \$0-p4;
#X connect 0 0 6 0;
#X connect 1 0 7 0;
#X connect 2 0 4 0;
#X connect 3 0 12 0;
#X connect 4 0 11 0;
#X connect 5 0 1 0;
#X connect 6 0 9 0;
#X connect 7 0 8 0;
#X connect 12 0 2 0;
#X connect 13 0 15 0;
#X connect 14 0 13 0;
#X connect 15 0 16 0;
#X connect 16 0 5 0;
#X connect 17 0 18 0;
#X connect 18 0 19 0;
#X connect 19 0 29 1;
#X connect 20 0 17 0;
#X connect 20 1 24 0;
#X connect 21 0 19 1;
#X connect 21 1 30 1;
#X connect 22 0 0 0;
#X connect 23 0 22 0;
#X connect 24 0 25 0;
#X connect 25 0 21 0;
#X connect 26 0 23 0;
#X connect 27 0 26 0;
#X connect 28 0 20 0;
#X connect 29 0 30 0;
#X connect 30 0 10 0;
#X connect 31 0 14 0;
#X connect 35 0 40 0;
#X connect 36 0 41 0;
#X connect 37 0 42 0;
#X connect 38 0 39 0;
#X connect 43 0 44 0;
#X connect 44 0 29 0;
#X connect 45 0 43 0;
#X connect 46 0 3 1;
#X connect 46 0 3 0;
#X connect 47 0 27 0;
#X connect 48 0 31 0;
#X connect 49 0 28 0;
