#N canvas 1143 680 446 575 10;
#X obj 339 72 t b b;
#X obj 330 100 f \$4;
#X obj 255 100 f \$3;
#X obj 191 71 t b b;
#X obj 181 99 f \$2;
#X obj 107 99 f \$1;
#X obj 33 22 inlet;
#X obj 72 494 outlet;
#X obj 107 21 inlet;
#X obj 181 21 inlet;
#X obj 255 21 inlet;
#X obj 330 21 inlet;
#X obj 191 49 loadbang;
#X obj 340 50 loadbang;
#X obj 33 213 -;
#X obj 127 213 -;
#X obj 168 140 t b f;
#X obj 121 188 f;
#X obj 52 348 /;
#X obj 278 238 -;
#X obj 275 202 f;
#X obj 72 403 *;
#X obj 70 376 f;
#X obj 277 285 t b f;
#X obj 33 307 f;
#X obj 127 235 t b f;
#X obj 72 425 f;
#X obj 72 447 +;
#X obj 297 175 t b f f;
#X obj 307 362 t b f;
#X obj 33 186 f;
#X obj 49 153 t b f;
#X connect 0 0 1 0;
#X connect 0 1 2 0;
#X connect 1 0 20 0;
#X connect 2 0 28 0;
#X connect 3 0 4 0;
#X connect 3 1 5 0;
#X connect 4 0 17 0;
#X connect 5 0 31 0;
#X connect 5 0 16 0;
#X connect 6 0 30 0;
#X connect 8 0 5 0;
#X connect 9 0 4 0;
#X connect 10 0 2 0;
#X connect 11 0 1 0;
#X connect 12 0 3 0;
#X connect 13 0 0 0;
#X connect 14 0 24 0;
#X connect 15 0 25 0;
#X connect 16 0 17 0;
#X connect 16 1 15 1;
#X connect 17 0 15 0;
#X connect 18 0 22 0;
#X connect 19 0 23 0;
#X connect 20 0 19 0;
#X connect 21 0 26 0;
#X connect 22 0 21 0;
#X connect 23 0 22 0;
#X connect 23 1 21 1;
#X connect 24 0 18 0;
#X connect 25 0 24 0;
#X connect 25 1 18 1;
#X connect 26 0 27 0;
#X connect 27 0 7 0;
#X connect 28 0 20 0;
#X connect 28 1 19 1;
#X connect 28 2 29 0;
#X connect 29 0 26 0;
#X connect 29 1 27 1;
#X connect 30 0 14 0;
#X connect 31 0 30 0;
#X connect 31 1 14 1;
