#N canvas 828 337 548 238 10;
#X obj 32 48 inlet~;
#X obj 32 70 -~;
#X obj 99 47 inlet~ inLow;
#X obj 33 104 /~;
#X obj 198 47 inlet~ inHigh;
#X obj 80 89 -~;
#X obj 309 47 inlet~ outLow;
#X obj 408 47 inlet~ outHigh;
#X obj 291 89 -~;
#X obj 33 126 *~;
#X obj 33 148 +~;
#X obj 33 170 outlet~;
#X connect 0 0 1 0;
#X connect 1 0 3 0;
#X connect 2 0 1 1;
#X connect 2 0 5 1;
#X connect 3 0 9 0;
#X connect 4 0 5 0;
#X connect 5 0 3 1;
#X connect 6 0 8 1;
#X connect 6 0 10 1;
#X connect 7 0 8 0;
#X connect 8 0 9 1;
#X connect 9 0 10 0;
#X connect 10 0 11 0;
