#N canvas 480 316 289 281 10;
#X obj -8 105 mtof;
#X obj -8 149 /;
#X msg -8 127 1000 \$1;
#X obj 53 127 f \$1;
#X obj 64 81 loadbang;
#X obj 53 61 inlet;
#X obj -8 61 inlet;
#X obj -8 221 /;
#X obj -8 243 outlet;
#X obj 53 149 mtof;
#X msg 53 171 1000 \$1;
#X obj 53 193 /;
#X text -8 14 midi-scaling for sample playback;
#X text 100 60 <<< original midinote;
#X text -8 24 ================================;
#X connect 0 0 2 0;
#X connect 1 0 7 0;
#X connect 2 0 1 0;
#X connect 3 0 9 0;
#X connect 4 0 3 0;
#X connect 5 0 3 0;
#X connect 6 0 0 0;
#X connect 7 0 8 0;
#X connect 9 0 10 0;
#X connect 10 0 11 0;
#X connect 11 0 7 1;
