#N canvas 299 414 459 346 10;
#X obj 112 82 snapshot~;
#X obj 67 61 inlet~;
#X msg 112 22 1;
#X obj 112 2 loadbang;
#X floatatom 112 101 7 0 0 0 - - -, f 7;
#X obj 67 116 outlet;
#X text 101 100 ~;
#X obj 149 22 f \$1;
#X obj 112 62 metro 20;
#X obj 149 41 sel 0;
#X connect 0 0 4 0;
#X connect 1 0 0 0;
#X connect 2 0 8 0;
#X connect 3 0 2 0;
#X connect 3 0 7 0;
#X connect 4 0 5 0;
#X connect 7 0 9 0;
#X connect 8 0 0 0;
#X connect 9 1 8 1;
#X coords 0 -1 1 1 65 16 2 100 100;
