#N canvas 421 300 696 501 10;
#X obj 30 55 inlet;
#X obj 30 226 random;
#X obj 95 55 inlet;
#X obj 144 55 inlet;
#X obj 144 126 + 1;
#X obj 95 209 -;
#X obj 30 377 +;
#X obj 30 439 outlet;
#X obj 95 126 t b f;
#X obj 95 79 f \$1;
#X obj 144 79 f \$2;
#X obj 209 55 loadbang;
#X obj 30 101 bang;
#X text 19 23 ============================================================
;
#X obj 95 188 f;
#X obj 162 102 * 1000;
#X obj 95 102 * 1000;
#X obj 30 418 * 0.001;
#X obj 30 262 /;
#X obj 30 284 * 1000;
#X obj 30 306 tabread2 \$3;
#X obj 30 350 *;
#X obj 144 148 t f f f;
#X obj 30 328 / 1000;
#X text 19 13 random number generator with probability distribution
lookup;
#X connect 0 0 12 0;
#X connect 1 0 18 0;
#X connect 2 0 9 0;
#X connect 3 0 10 0;
#X connect 4 0 22 0;
#X connect 5 0 1 1;
#X connect 6 0 17 0;
#X connect 8 0 14 0;
#X connect 8 1 5 1;
#X connect 9 0 16 0;
#X connect 10 0 15 0;
#X connect 11 0 9 0;
#X connect 11 0 10 0;
#X connect 12 0 1 0;
#X connect 14 0 5 0;
#X connect 15 0 4 0;
#X connect 16 0 6 1;
#X connect 16 0 8 0;
#X connect 17 0 7 0;
#X connect 18 0 19 0;
#X connect 19 0 20 0;
#X connect 20 0 23 0;
#X connect 21 0 6 0;
#X connect 22 0 14 0;
#X connect 22 1 18 1;
#X connect 22 2 21 1;
#X connect 23 0 21 0;
