#N canvas 732 265 458 475 10;
#X obj 68 161 -;
#X obj 196 137 * 2;
#X obj 14 188 -~ 0;
#X obj 157 70 inlet radius;
#X obj 68 70 inlet centre;
#X obj 68 140 f \$1;
#X obj 157 90 f \$2;
#X obj 249 69 loadbang;
#X obj 14 416 outlet~;
#X obj 14 50 inlet~ signal;
#X obj 14 296 clip~ 0 1;
#X text 11 18 Ramps up/down towards value based on radius parameter
;
#X text 11 28 =====================================================
;
#X obj 157 112 t b f f;
#X obj 14 336 cos~;
#X obj 14 316 -~ 0.5;
#X obj 14 356 *~ 0.5;
#X obj 14 386 +~ 0.5;
#X msg 196 158 1 \$1;
#X obj 196 179 /;
#X obj 14 276 *~ 1;
#X connect 0 0 2 1;
#X connect 1 0 18 0;
#X connect 2 0 20 0;
#X connect 3 0 6 0;
#X connect 4 0 5 0;
#X connect 5 0 0 0;
#X connect 6 0 13 0;
#X connect 7 0 6 0;
#X connect 9 0 2 0;
#X connect 10 0 15 0;
#X connect 13 0 5 0;
#X connect 13 1 0 1;
#X connect 13 2 1 0;
#X connect 14 0 16 0;
#X connect 15 0 14 0;
#X connect 16 0 17 0;
#X connect 17 0 8 0;
#X connect 18 0 19 0;
#X connect 19 0 20 1;
#X connect 20 0 10 0;
