#N canvas 421 300 401 287 10;
#X obj 30 55 inlet;
#X obj 30 186 random;
#X obj 95 55 inlet;
#X obj 144 55 inlet;
#X obj 144 126 + 1;
#X obj 95 169 -;
#X obj 30 207 +;
#X obj 30 249 outlet;
#X obj 95 126 t b f;
#X obj 95 79 f \$1;
#X obj 144 79 f \$2;
#X text 19 13 random number generator with settable range and float
output;
#X obj 209 55 loadbang;
#X obj 30 101 bang;
#X text 19 23 ============================================================
;
#X obj 95 148 f;
#X obj 162 102 * 1000;
#X obj 95 102 * 1000;
#X obj 30 228 * 0.001;
#X connect 0 0 13 0;
#X connect 1 0 6 0;
#X connect 2 0 9 0;
#X connect 3 0 10 0;
#X connect 4 0 15 0;
#X connect 5 0 1 1;
#X connect 6 0 18 0;
#X connect 8 0 15 0;
#X connect 8 1 5 1;
#X connect 9 0 17 0;
#X connect 10 0 16 0;
#X connect 12 0 9 0;
#X connect 12 0 10 0;
#X connect 13 0 1 0;
#X connect 15 0 5 0;
#X connect 16 0 4 0;
#X connect 17 0 6 1;
#X connect 17 0 8 0;
#X connect 18 0 7 0;
