#N canvas 1304 643 298 235 10;
#X obj 14 195 outlet~;
#X obj 14 14 inlet~ signal;
#X obj 14 133 clip~ 0 1;
#X text 146 197 requires chnrx.rampinit;
#X obj 14 175 tabread4~ chnrxRamp;
#X obj 14 154 *~ 512;
#X obj 14 113 /~;
#X obj 14 92 -~;
#X obj 29 67 -~;
#X obj 39 92 *~ 2;
#X obj 118 46 inlet~ radius;
#X obj 29 46 inlet~ centre;
#X connect 1 0 7 0;
#X connect 2 0 5 0;
#X connect 4 0 0 0;
#X connect 5 0 4 0;
#X connect 6 0 2 0;
#X connect 7 0 6 0;
#X connect 8 0 7 1;
#X connect 9 0 6 1;
#X connect 10 0 9 0;
#X connect 10 0 8 1;
#X connect 11 0 8 0;
