#N canvas 1024 345 979 926 10;
#X obj 111 -231 pack f f;
#N canvas 977 394 247 156 counter 0;
#X obj 15 -8 f;
#X obj 39 -8 + 1;
#X obj 59 35 sel 1;
#X obj 92 -34 inlet max;
#X obj 15 -34 inlet clock;
#X obj 39 79 outlet;
#X obj 92 -8 - 1;
#X obj 59 15 >= 511;
#X msg 59 56 -1;
#X obj 157 -34 inlet set;
#X connect 0 0 1 0;
#X connect 1 0 0 1;
#X connect 1 0 5 0;
#X connect 1 0 7 0;
#X connect 2 0 8 0;
#X connect 3 0 6 0;
#X connect 4 0 0 0;
#X connect 6 0 7 1;
#X connect 7 0 2 0;
#X connect 8 0 0 1;
#X connect 9 0 0 1;
#X restore 129 -275 pd counter;
#X obj 111 -296 t f b;
#X obj 226 -35 % 512;
#X obj 226 -55 +;
#X obj 129 -254 t f f;
#X obj 226 -237 t b f;
#N canvas 0 22 450 300 (subpatch) 0;
#X array \$0-table-rolling 512 float 0;
#X coords 0 1 511 0 512 100 1;
#X restore 100 100 graph;
#X obj 226 9 pack f f;
#X obj 226 -183 t f f;
#X obj 271 -88 -;
#X obj 503 -317 table \$0-table;
#X obj 226 37 tabwrite \$0-table-rolling;
#X obj 226 -14 tabread \$0-table;
#X obj 48 -346 inlet;
#X obj 111 -212 tabwrite \$0-table;
#X obj 503 -190 f \$0;
#X obj 157 -296 r \$0-max;
#X obj 313 -234 r \$0-max;
#X obj 253 -55 r \$0-max;
#X obj 271 -130 pack f f;
#X msg 271 -109 \$2 \$1;
#X obj 316 -175 r \$0-max;
#X msg 503 -124 \; \$1-table resize \$2;
#X msg 637 -124 \; \$1-table-rolling resize \$2;
#X obj 503 -162 pack f f;
#X obj 559 -189 f 512;
#X obj 503 -215 t b b;
#X obj 559 -252 r \$0-max;
#X obj 316 -152 - 1;
#X obj 332 -279 s \$0-max;
#X obj 559 -232 t b f;
#X obj 332 -317 inlet size;
#X obj 402 -316 loadbang;
#X msg 402 -296 512;
#X text 48 -380 Rolling display of incoming values;
#X text 48 -368 ~~~~~~~~~~~~~~~~~~~~~~~~~~~~~~~~~~~~~~~~~~~~~~~;
#X text 660 151 @krighxz;
#X text 667 163 krighxz.info;
#X text 669 177 //2015;
#X obj 226 -215 zuzi 512;
#X obj 48 -324 route clear;
#X obj 55 -278 r \$0-max;
#X obj 28 -257 zuzi 512;
#X msg 28 -235 0;
#X connect 0 0 15 0;
#X connect 1 0 5 0;
#X connect 2 0 0 0;
#X connect 2 1 1 0;
#X connect 3 0 13 0;
#X connect 4 0 3 0;
#X connect 5 0 6 0;
#X connect 5 1 0 1;
#X connect 6 0 40 0;
#X connect 6 1 4 1;
#X connect 8 0 12 0;
#X connect 9 0 4 0;
#X connect 9 1 20 0;
#X connect 10 0 8 1;
#X connect 13 0 8 0;
#X connect 14 0 41 0;
#X connect 16 0 25 0;
#X connect 17 0 1 1;
#X connect 18 0 40 1;
#X connect 19 0 3 1;
#X connect 20 0 21 0;
#X connect 21 0 10 0;
#X connect 22 0 29 0;
#X connect 25 0 23 0;
#X connect 25 0 24 0;
#X connect 26 0 25 1;
#X connect 27 0 16 0;
#X connect 27 1 26 0;
#X connect 28 0 31 0;
#X connect 29 0 20 1;
#X connect 31 0 27 0;
#X connect 31 1 26 1;
#X connect 32 0 30 0;
#X connect 33 0 34 0;
#X connect 34 0 30 0;
#X connect 40 2 9 0;
#X connect 41 0 43 0;
#X connect 41 1 2 0;
#X connect 42 0 43 1;
#X connect 43 0 44 0;
#X connect 44 0 2 0;
#X coords 0 -1 1 1 512 100 2 100 100;
