#N canvas 707 -942 290 307 10;
#X text 191 82 (range 0-1);
#X obj 73 83 inlet~;
#X obj 73 105 *~;
#X obj 118 83 inlet~ value;
#X obj 118 105 *~ 8;
#X obj 118 127 -~ 4;
#X obj 73 150 pow~;
#X obj 73 127 *~ 2;
#X obj 73 170 +~ 1;
#X obj 27 170 sig~ 1;
#X obj 58 211 /~;
#X obj 43 232 -~;
#X obj 43 253 outlet~;
#X text 23 40 [avoid using too much \, due to pow~];
#X text 23 10 s-curve / sigmoid generator;
#X text 23 20 ===========================;
#X connect 1 0 2 0;
#X connect 1 0 2 1;
#X connect 2 0 7 0;
#X connect 3 0 4 0;
#X connect 4 0 5 0;
#X connect 5 0 6 1;
#X connect 6 0 8 0;
#X connect 7 0 6 0;
#X connect 8 0 10 1;
#X connect 9 0 10 0;
#X connect 9 0 11 0;
#X connect 10 0 11 1;
#X connect 11 0 12 0;
