#N canvas 1020 592 875 687 10;
#N canvas 0 22 450 278 (subpatch) 0;
#X array \$0-skope 64 float 0;
#X coords 0 1 63 -1 256 256 1 0 0;
#X restore 101 101 graph;
#X obj 101 43 metro;
#X obj 128 -81 samplerate~;
#X obj 128 -102 loadbang;
#X obj 128 22 /;
#X obj 24 8 inlet~;
#X obj 101 65 tabwrite~ \$0-skope;
#X msg 384 204 +, f 1;
#X msg 384 238 -, f 1;
#X msg 384 221 o, f 1;
#X floatatom 331 101 4 0 0 0 - - -, f 4;
#X obj 45 28 r \$0-z;
#X obj 24 48 *~ 1;
#X obj 23 84 r \$0-disp;
#N canvas 472 344 169 265 ctl 0;
#X obj 90 99 + 1;
#X obj 66 75 t b f;
#X obj 66 99 f 0;
#X obj 90 159 pow;
#X msg 90 139 2 \$1;
#X obj 90 119 * 0.1;
#X msg 28 50 0;
#X obj 28 75 t f f;
#X msg 90 181 1 \$1;
#X obj 90 203 /;
#X obj 28 181 s \$0-z;
#X obj 90 225 s \$0-disp;
#X obj 28 19 inlet;
#X obj 66 19 inlet;
#X obj 106 19 inlet;
#X msg 66 50 -1;
#X msg 106 50 1;
#X connect 0 0 5 0;
#X connect 0 0 2 1;
#X connect 1 0 2 0;
#X connect 1 1 0 1;
#X connect 2 0 0 0;
#X connect 3 0 8 0;
#X connect 3 0 10 0;
#X connect 4 0 3 0;
#X connect 5 0 4 0;
#X connect 6 0 7 0;
#X connect 7 0 2 0;
#X connect 7 1 0 1;
#X connect 8 0 9 0;
#X connect 9 0 11 0;
#X connect 12 0 6 0;
#X connect 13 0 15 0;
#X connect 14 0 16 0;
#X connect 15 0 1 0;
#X connect 16 0 1 0;
#X restore 384 263 pd ctl;
#X floatatom 331 343 4 0 0 0 - - -, f 4;
#X text 323 343 -;
#X obj 346 213 bng 11 250 50 0 empty empty + 3 5 0 10 -1 -262144 -262144
;
#X obj 346 224 bng 11 250 50 0 empty empty o 3 5 0 10 -1 -262144 -262144
;
#X obj 346 235 bng 11 250 50 0 empty empty - 3 5 0 10 -1 -262144 -262144
;
#X text 347 197 |;
#X obj 344 -26 array size \$0-skope;
#X obj 299 -25 * 1000;
#X obj 128 -39 f 64000;
#X obj 128 -59 t b f;
#X obj 128 -19 pack f f;
#X obj 272 -98 inlet;
#X floatatom 191 30 5 0 0 0 - - -, f 5;
#X msg 128 1 \$1 \$2;
#X obj 272 -76 t b b f;
#X text 347 189 |;
#X text 347 181 |;
#X text 347 173 |;
#X text 347 165 |;
#X text 347 157 |;
#X text 347 149 |;
#X text 347 141 |;
#X text 347 133 |;
#X text 347 125 |;
#X text 347 320 |;
#X text 347 312 |;
#X text 347 304 |;
#X text 347 296 |;
#X text 347 288 |;
#X text 347 280 |;
#X text 347 272 |;
#X text 347 264 |;
#X text 347 256 |;
#X text 347 248 |;
#X text 347 117 |;
#X text 347 328 |;
#X connect 1 0 6 0;
#X connect 2 0 24 0;
#X connect 3 0 2 0;
#X connect 3 0 1 0;
#X connect 4 0 1 1;
#X connect 4 0 27 0;
#X connect 5 0 12 0;
#X connect 7 0 14 2;
#X connect 8 0 14 1;
#X connect 9 0 14 0;
#X connect 11 0 12 1;
#X connect 12 0 6 0;
#X connect 13 0 10 0;
#X connect 13 0 15 0;
#X connect 17 0 7 0;
#X connect 18 0 9 0;
#X connect 19 0 8 0;
#X connect 22 0 23 1;
#X connect 23 0 25 0;
#X connect 24 0 23 0;
#X connect 24 1 25 1;
#X connect 25 0 28 0;
#X connect 26 0 29 0;
#X connect 28 0 4 0;
#X connect 29 0 1 0;
#X connect 29 1 2 0;
#X connect 29 2 21 0;
#X connect 29 2 22 0;
#X coords 0 -1 1 1 258 258 2 100 100;
