#N canvas 554 888 316 285 10;
#X obj 35 60 inlet;
#X obj 80 60 inlet smoothAmount;
#X msg 80 82 1 \$1;
#X obj 80 104 -;
#X obj 35 182 * 1;
#X obj 35 214 +;
#X obj 35 132 t f b;
#X obj 87 162 f;
#X obj 87 184 *;
#X obj 35 236 outlet;
#X text 36 16 Simple smoothing filter;
#X text 36 26 =======================;
#X obj 222 60 f \$1;
#X obj 222 40 loadbang;
#X connect 0 0 6 0;
#X connect 1 0 2 0;
#X connect 1 0 8 1;
#X connect 2 0 3 0;
#X connect 3 0 4 1;
#X connect 4 0 5 0;
#X connect 5 0 7 1;
#X connect 5 0 9 0;
#X connect 6 0 4 0;
#X connect 6 1 7 0;
#X connect 7 0 8 0;
#X connect 8 0 5 1;
#X connect 12 0 2 0;
#X connect 12 0 8 1;
#X connect 13 0 12 0;
