#N canvas 1083 413 673 542 10;
#X obj 211 167 rzero~ 1;
#X obj 255 145 sig~ 1;
#X obj 81 362 rpole~ 1;
#X obj 81 437 hv.gte;
#X obj 126 327 hv.gt;
#X obj 81 101 lop~ 10;
#X obj 66 465 *~;
#X obj 211 189 *~ 44100;
#X obj 114 416 sig~ 0.01;
#X obj 211 211 abs~;
#X obj 153 269 -~;
#X obj 153 291 *~ 0.1;
#X obj 211 230 lop~ 1;
#X obj 211 252 clip~ 0 1;
#X obj 153 247 sig~ 0.5;
#X text 510 96 tolerance (0<t<=1);
#X obj 96 153 samplerate~;
#X obj 96 132 loadbang;
#X obj 96 175 sig~;
#X obj 81 196 /~;
#X obj 368 115 inlet;
#X obj 368 137 f \$1;
#X obj 408 115 loadbang;
#X obj 508 115 inlet;
#X obj 548 115 loadbang;
#X obj 508 137 f \$2;
#X obj 368 159 sel 0;
#X obj 508 159 sel 0;
#X obj 81 77 inlet~;
#X text 368 96 accum threshold;
#X text 60 20 SIGNAL RATE TEMPORAL HYSTERESIS;
#X text 60 30 ===============================;
#X obj 66 500 outlet~;
#X connect 0 0 7 0;
#X connect 1 0 0 1;
#X connect 2 0 3 0;
#X connect 3 0 6 1;
#X connect 4 0 2 1;
#X connect 5 0 0 0;
#X connect 5 0 6 0;
#X connect 5 0 19 0;
#X connect 6 0 32 0;
#X connect 7 0 9 0;
#X connect 8 0 3 1;
#X connect 9 0 12 0;
#X connect 10 0 11 0;
#X connect 11 0 4 1;
#X connect 12 0 13 0;
#X connect 13 0 10 1;
#X connect 14 0 10 0;
#X connect 16 0 18 0;
#X connect 17 0 16 0;
#X connect 18 0 19 1;
#X connect 19 0 2 0;
#X connect 20 0 21 0;
#X connect 21 0 26 0;
#X connect 22 0 21 0;
#X connect 23 0 25 0;
#X connect 24 0 25 0;
#X connect 25 0 27 0;
#X connect 26 1 8 0;
#X connect 27 1 14 0;
#X connect 28 0 5 0;
#X connect 28 0 4 0;
