#N canvas 159 249 422 241 10;
#X obj 18 147 *~;
#X obj 18 66 inlet~;
#X obj 18 169 outlet~;
#X obj 18 125 hip~ 10;
#X obj 57 94 inlet~ freq;
#X obj 127 94 inlet~ gain;
#X text 13 23 ===========================================;
#X text 13 13 Highpass component to be used with k.pTract;
#X text 61 208 'krighxz' library // Copyright Christian Heinrichs;
#X connect 0 0 2 0;
#X connect 1 0 3 0;
#X connect 3 0 0 0;
#X connect 4 0 3 1;
#X connect 5 0 0 1;
