#N canvas 747 226 451 489 10;
#X obj 22 29 inlet~;
#X obj 380 458 outlet~;
#X obj 166 19 catch~ _tractFreq1;
#X obj 255 39 catch~ _tractGain1;
#X obj 344 59 catch~ _tractQ1;
#X obj 166 99 catch~ _tractFreq2;
#X obj 255 119 catch~ _tractGain2;
#X obj 344 139 catch~ _tractQ2;
#X obj 166 179 catch~ _tractFreq3;
#X obj 255 199 catch~ _tractGain3;
#X obj 344 219 catch~ _tractQ3;
#X obj 166 259 catch~ _tractFreq4;
#X obj 255 279 catch~ _tractGain4;
#X obj 344 299 catch~ _tractQ4;
#X obj 166 339 catch~ _tractFreq5;
#X obj 255 359 catch~ _tractGain5;
#X obj 344 379 catch~ _tractQ5;
#X obj 77 79 k.tractFilter~ _tractFreq1 _tractGain1 _tractQ1;
#X obj 77 159 k.tractFilter~ _tractFreq2 _tractGain2 _tractQ2;
#X obj 77 239 k.tractFilter~ _tractFreq3 _tractGain3 _tractQ3;
#X obj 77 319 k.tractFilter~ _tractFreq4 _tractGain4 _tractQ4;
#X obj 77 399 k.tractFilterHip~ _tractFreq5 _tractGain5 _tractQ5;
#X connect 0 0 17 0;
#X connect 0 0 18 0;
#X connect 0 0 19 0;
#X connect 0 0 20 0;
#X connect 0 0 21 0;
#X connect 2 0 17 1;
#X connect 3 0 17 2;
#X connect 4 0 17 3;
#X connect 5 0 18 1;
#X connect 6 0 18 2;
#X connect 7 0 18 3;
#X connect 8 0 19 1;
#X connect 9 0 19 2;
#X connect 10 0 19 3;
#X connect 11 0 20 1;
#X connect 12 0 20 2;
#X connect 13 0 20 3;
#X connect 14 0 21 1;
#X connect 15 0 21 2;
#X connect 17 0 1 0;
#X connect 18 0 1 0;
#X connect 19 0 1 0;
#X connect 20 0 1 0;
#X connect 21 0 1 0;
