#N canvas 878 416 389 333 10;
#X obj 18 257 *~;
#X obj 18 56 inlet~;
#X obj 18 279 outlet~;
#X obj 37 134 *~ 1;
#X obj 58 108 r tractScaleFreq;
#X obj 187 155 * 1;
#X obj 202 132 r tractScaleQ;
#X obj 37 84 inlet~ freq;
#X obj 53 234 inlet~ gain;
#X obj 187 84 inlet~ q;
#X obj 18 205 vcf~ 10;
#X obj 187 108 k.snapshot 5;
#X text 13 13 Bandpass component to be used with k.pTract;
#X text 13 23 ===========================================;
#X text 39 306 'krighxz' library // Copyright Christian Heinrichs;
#X connect 0 0 2 0;
#X connect 1 0 10 0;
#X connect 3 0 10 1;
#X connect 4 0 3 1;
#X connect 5 0 10 2;
#X connect 6 0 5 1;
#X connect 7 0 3 0;
#X connect 8 0 0 1;
#X connect 9 0 11 0;
#X connect 10 0 0 0;
#X connect 11 0 5 0;
