#N canvas 454 159 694 277 10;
#X obj 22 68 inlet~;
#X obj 93 118 outlet~ _tractFreq1;
#X obj 126 138 outlet~ _tractFreq2;
#X obj 160 158 outlet~ _tractFreq3;
#X obj 194 178 outlet~ _tractFreq4;
#X obj 228 198 outlet~ _tractFreq5;
#X obj 263 118 outlet~ _tractGain1;
#X obj 296 138 outlet~ _tractGain2;
#X obj 330 158 outlet~ _tractGain3;
#X obj 364 178 outlet~ _tractGain4;
#X obj 398 198 outlet~ _tractGain5;
#X obj 433 118 outlet~ _tractQ1;
#X obj 466 138 outlet~ _tractQ2;
#X obj 500 158 outlet~ _tractQ3;
#X obj 534 178 outlet~ _tractQ4;
#X obj 568 198 outlet~ _tractQ5;
#X obj 93 89 k.wPoint5~ \$1 \$2 \$3 \$4 \$5;
#X text 20 14 Use krighxz weighting manager system to declare a tract
configuration;
#X text 20 37 =============;
#X obj 263 89 k.wPoint5~ \$6 \$7 \$8 \$9 \$10;
#X obj 433 89 k.wPoint5~ \$11 \$12 \$13 \$14 \$15;
#X text 333 250 'krighxz' library // Copyright 2016 Christian Heinrichs
;
#X connect 0 0 16 0;
#X connect 0 0 19 0;
#X connect 0 0 20 0;
#X connect 16 0 1 0;
#X connect 16 1 2 0;
#X connect 16 2 3 0;
#X connect 16 3 4 0;
#X connect 16 4 5 0;
#X connect 19 0 6 0;
#X connect 19 1 7 0;
#X connect 19 2 8 0;
#X connect 19 3 9 0;
#X connect 19 4 10 0;
#X connect 20 0 11 0;
#X connect 20 1 12 0;
#X connect 20 2 13 0;
#X connect 20 3 14 0;
#X connect 20 4 15 0;
