#N canvas 454 159 694 277 10;
#X obj 22 68 inlet~;
#X obj 93 89 k.wPoint5~ \$1 \$2 \$3 \$4 \$5;
#X text 20 14 Use krighxz weighting manager system to declare a tract
configuration;
#X text 20 37 =============;
#X obj 263 89 k.wPoint5~ \$6 \$7 \$8 \$9 \$10;
#X obj 433 89 k.wPoint5~ \$11 \$12 \$13 \$14 \$15;
#X obj 93 118 throw~ _tractFreq1;
#X obj 126 138 throw~ _tractFreq2;
#X obj 160 158 throw~ _tractFreq3;
#X obj 194 178 throw~ _tractFreq4;
#X obj 228 198 throw~ _tractFreq5;
#X obj 263 118 throw~ _tractGain1;
#X obj 296 138 throw~ _tractGain2;
#X obj 330 158 throw~ _tractGain3;
#X obj 364 178 throw~ _tractGain4;
#X obj 398 198 throw~ _tractGain5;
#X obj 433 118 throw~ _tractQ1;
#X obj 466 138 throw~ _tractQ2;
#X obj 500 158 throw~ _tractQ3;
#X obj 534 178 throw~ _tractQ4;
#X obj 568 198 throw~ _tractQ5;
#X text 333 250 'krighxz' library // Copyright Christian Heinrichs
;
#X connect 0 0 1 0;
#X connect 0 0 4 0;
#X connect 0 0 5 0;
#X connect 1 0 6 0;
#X connect 1 1 7 0;
#X connect 1 2 8 0;
#X connect 1 3 9 0;
#X connect 1 4 10 0;
#X connect 4 0 11 0;
#X connect 4 1 12 0;
#X connect 4 2 13 0;
#X connect 4 3 14 0;
#X connect 4 4 15 0;
#X connect 5 0 16 0;
#X connect 5 1 17 0;
#X connect 5 2 18 0;
#X connect 5 3 19 0;
#X connect 5 4 20 0;
