#N canvas 1179 517 544 342 10;
#X obj 124 135 hsl 188 8 0 110 0 0 empty empty empty -2 -8 0 10 -99865
-258113 -1 0 1;
#X text 272 120 ¦;
#X text 272 130 ¦;
#X text 272 140 ¦;
#X text 272 150 ¦;
#X text 272 160 ¦;
#X text 272 170 ¦;
#X text 272 178 ¦;
#X text 272 188 ¦;
#X obj 361 141 bng 8 250 50 0 empty empty empty 17 7 0 10 -261234 -258113
-1;
#X obj 124 145 hsl 188 16 0 110 0 0 empty empty empty -2 -8 0 10 -66577
-257985 -1 0 1;
#X obj 124 163 hsl 188 16 0 110 0 0 empty empty empty -2 -8 0 10 -66577
-257985 -1 0 1;
#X obj 124 181 hsl 188 8 0 110 0 0 empty empty empty -2 -8 0 10 -99865
-258113 -1 0 1;
#X obj 361 180 bng 8 250 50 0 empty empty empty 17 7 0 10 -261234 -258113
-1;
#N canvas 0 50 289 215 envmax 0;
#X obj 95 93 max;
#X obj 76 65 t b f;
#X obj 99 160 outlet max;
#X obj 194 39 inlet reset;
#X msg 194 61 0;
#X obj 76 16 inlet~;
#X obj 21 160 outlet env;
#X obj 76 115 f;
#X obj 76 41 env~ 16384 8192;
#X connect 0 0 7 1;
#X connect 1 0 7 0;
#X connect 1 1 0 0;
#X connect 3 0 4 0;
#X connect 4 0 7 0;
#X connect 5 0 8 0;
#X connect 7 0 0 1;
#X connect 7 0 2 0;
#X connect 8 0 1 0;
#X connect 8 0 6 0;
#X restore 26 80 pd envmax;
#N canvas 0 50 292 215 envmax 0;
#X obj 95 93 max;
#X obj 76 65 t b f;
#X obj 99 160 outlet max;
#X obj 191 41 inlet reset;
#X msg 191 63 0;
#X obj 76 16 inlet~;
#X obj 21 160 outlet env;
#X obj 76 115 f;
#X obj 76 42 env~ 16384 8192;
#X connect 0 0 7 1;
#X connect 1 0 7 0;
#X connect 1 1 0 0;
#X connect 3 0 4 0;
#X connect 4 0 7 0;
#X connect 5 0 8 0;
#X connect 7 0 0 1;
#X connect 7 0 2 0;
#X connect 8 0 1 0;
#X connect 8 0 6 0;
#X restore 99 80 pd envmax;
#X obj 15 11 inlet~ L;
#X obj 88 11 inlet~ R;
#X obj 176 109 outlet;
#X obj 249 109 outlet;
#X obj 17 302 outlet~;
#X obj 87 302 outlet~;
#X obj 195 31 dbtorms;
#X obj 88 50 *~;
#X floatatom 195 11 5 0 0 0 - - -, f 5;
#X obj 124 194 hsl 188 14 0 110 0 0 empty empty empty -2 -8 0 10 -228856
-13381 -1 14909 1;
#X obj 405 162 loadbang;
#X msg 437 204 90;
#X obj 274 191 bng 8 250 50 0 empty empty empty 17 7 0 10 -204786 -13381
-1;
#X obj 16 50 *~;
#X obj 413 106 - 90;
#X obj 276 235 - 90;
#X obj 373 107 - 90;
#X obj 489 105 - 90;
#X obj 449 106 - 90;
#X obj 315 137 nbx 5 14 -1e+037 1e+037 0 0 empty empty empty 0 -8 0
8 -99865 -261234 -66577 -90 256;
#X obj 315 176 nbx 5 14 -1e+037 1e+037 0 0 empty empty empty 0 -8 0
8 -99865 -261234 -66577 -90 256;
#X obj 315 150 nbx 5 14 -1e+037 1e+037 0 0 empty empty empty 0 -8 0
10 -66577 -204786 -66577 -90 256;
#X obj 315 165 nbx 5 14 -1e+037 1e+037 0 0 empty empty empty 0 -8 0
10 -66577 -204786 -66577 -90 256;
#X obj 315 194 nbx 5 14 -1e+037 1e+037 0 0 empty empty empty 0 -8 0
10 -228856 -13381 -66577 -2.3 256;
#X obj 195 52 sig~;
#X obj 194 73 lop~ 5;
#X obj 463 162 inlet;
#X obj 405 204 f \$1;
#X obj 405 224 sel 0;
#X obj 405 183 t b b;
#X obj 432 245 + 90;
#X floatatom 432 266 5 0 0 0 - - -, f 5;
#X connect 9 0 14 1;
#X connect 13 0 15 1;
#X connect 14 0 10 0;
#X connect 14 0 18 0;
#X connect 14 0 30 0;
#X connect 14 1 0 0;
#X connect 14 1 32 0;
#X connect 15 0 11 0;
#X connect 15 0 19 0;
#X connect 15 0 34 0;
#X connect 15 1 12 0;
#X connect 15 1 33 0;
#X connect 16 0 29 0;
#X connect 17 0 23 0;
#X connect 22 0 40 0;
#X connect 23 0 15 0;
#X connect 23 0 21 0;
#X connect 24 0 22 0;
#X connect 25 0 24 0;
#X connect 25 0 31 0;
#X connect 26 0 45 0;
#X connect 27 0 25 0;
#X connect 28 0 27 0;
#X connect 29 0 14 0;
#X connect 29 0 20 0;
#X connect 30 0 37 0;
#X connect 31 0 39 0;
#X connect 32 0 35 0;
#X connect 33 0 36 0;
#X connect 34 0 38 0;
#X connect 40 0 41 0;
#X connect 41 0 23 1;
#X connect 41 0 29 1;
#X connect 42 0 25 0;
#X connect 43 0 44 0;
#X connect 44 1 46 0;
#X connect 45 0 43 0;
#X connect 45 1 27 0;
#X connect 46 0 25 0;
#X connect 46 0 47 0;
#X coords 0 -1 1 1 253 77 1 118 133;
