#N canvas 1173 469 330 288 10;
#X obj 198 109 clip 0 0.999;
#X obj 177 205 lop~ \$2;
#X obj 252 65 loadbang;
#X obj 216 184 inlet lop;
#X obj 198 65 inlet fb;
#X obj 109 96 inlet~ time;
#X obj 109 258 outlet~;
#X obj 13 96 inlet~ signal;
#X obj 177 231 delwrite~ \$0-wg 100;
#X obj 109 118 vd~ \$0-wg;
#X obj 177 149 *~ 0;
#X obj 198 89 f \$1;
#X text 11 12 Basic 0-dimensional waveguide;
#X text 11 22 =============================;
#X connect 0 0 10 1;
#X connect 1 0 8 0;
#X connect 2 0 11 0;
#X connect 3 0 1 1;
#X connect 4 0 11 0;
#X connect 5 0 9 0;
#X connect 7 0 8 0;
#X connect 9 0 6 0;
#X connect 9 0 10 0;
#X connect 10 0 1 0;
#X connect 11 0 0 0;
