#N canvas 460 348 431 225 10;
#X obj 187 52 inlet~;
#X obj 27 134 outlet~;
#X obj 107 134 outlet~;
#X obj 187 134 outlet~;
#X obj 267 134 outlet~;
#X obj 347 134 outlet~;
#X obj 27 96 k.wPoint~ \$1;
#X text 20 7 Bank of 5 krighxz weighted points;
#X text 20 18 =================================;
#X text 79 193 'krighxz' library // Copyright Christian Heinrichs;
#X obj 107 96 k.wPoint~ \$2;
#X obj 187 96 k.wPoint~ \$3;
#X obj 267 96 k.wPoint~ \$4;
#X obj 347 96 k.wPoint~ \$5;
#X connect 0 0 6 0;
#X connect 0 0 10 0;
#X connect 0 0 11 0;
#X connect 0 0 12 0;
#X connect 0 0 13 0;
#X connect 6 0 1 0;
#X connect 10 0 2 0;
#X connect 11 0 3 0;
#X connect 12 0 4 0;
#X connect 13 0 5 0;
