#N canvas 817 482 209 196 10;
#X obj 20 102 until;
#X obj 20 123 f;
#X obj 51 125 + 1;
#X obj 51 146 mod \$1;
#X obj 20 49 inlet;
#X obj 127 147 outlet;
#X text 20 11 k.loop;
#X text 20 21 ======;
#X obj 20 71 t b b;
#X obj 95 125 sel 0;
#X msg 140 125 0;
#X obj 90 50 inlet;
#X connect 0 0 1 0;
#X connect 1 0 2 0;
#X connect 2 0 3 0;
#X connect 3 0 1 1;
#X connect 3 0 9 0;
#X connect 4 0 8 0;
#X connect 8 0 0 0;
#X connect 8 1 10 0;
#X connect 9 0 0 1;
#X connect 9 1 5 0;
#X connect 10 0 5 0;
#X connect 11 0 3 1;
