#N canvas 685 331 167 215 10;
#X obj 58 35 * 0.5;
#X obj 20 74 f;
#X obj 82 119 +;
#X obj 20 96 t f f;
#X obj 20 119 -;
#X obj 58 57 t b f f;
#X obj 20 163 outlet;
#X obj 82 163 outlet;
#X obj 20 15 inlet;
#X obj 58 15 inlet;
#X connect 0 0 5 0;
#X connect 1 0 3 0;
#X connect 2 0 7 0;
#X connect 3 0 4 0;
#X connect 3 1 2 0;
#X connect 4 0 6 0;
#X connect 5 0 1 0;
#X connect 5 1 4 1;
#X connect 5 2 2 1;
#X connect 8 0 1 0;
#X connect 9 0 0 0;
