#N canvas 494 155 254 310 10;
#X obj 23 146 pow;
#X obj 23 207 /;
#X obj 23 166 + 1;
#X obj 23 60 * 8;
#X obj 23 79 - 4;
#X msg 23 186 1 \$1;
#X obj 104 90 *;
#X obj 104 69 f \$1;
#X obj 23 104 t b f;
#X obj 23 125 pack \$1 f;
#X obj 104 110 * 2;
#X obj 23 267 outlet;
#X obj 104 48 inlet exponent;
#X obj 23 20 inlet value;
#X text 23 -10 s-curve generator <chnrx>;
#X text 96 19 (range 0-1);
#X obj 23 247 -;
#X msg 23 227 1 \$1;
#X connect 0 0 2 0;
#X connect 1 0 17 0;
#X connect 2 0 5 0;
#X connect 3 0 4 0;
#X connect 4 0 8 0;
#X connect 5 0 1 0;
#X connect 6 0 4 1;
#X connect 6 0 10 0;
#X connect 7 0 6 0;
#X connect 7 0 6 1;
#X connect 7 0 9 0;
#X connect 8 0 9 0;
#X connect 8 1 9 1;
#X connect 9 0 0 0;
#X connect 10 0 3 1;
#X connect 12 0 7 0;
#X connect 13 0 3 0;
#X connect 16 0 11 0;
#X connect 17 0 16 0;
