#N canvas 0 676 347 533 10;
#X obj 122 242 t f f;
#X obj 123 264 -;
#X obj 122 220 f;
#X obj 62 198 metro 1;
#X obj 123 330 * 1000;
#X obj 95 108 inlet;
#X text 30 13 k.smoothdelta;
#X text 30 23 =============;
#X obj 216 109 inlet;
#X obj 123 307 klib/k.smooth \$1;
#X text 30 41 gives unit change per second applying smoothing;
#X text 30 55 (see k.smooth for smoothing implementation);
#X obj 95 131 t b f;
#X obj 62 176 change -8;
#X msg 62 153 1, f 1;
#X obj 123 422 moses 1e-07;
#X obj 186 498 outlet;
#X msg 123 463 0;
#X obj 159 356 loadbang;
#X obj 159 378 f \$2;
#X obj 159 400 sel 0;
#X obj 123 443 moses -1e-07;
#X obj 202 426 * -1;
#X obj 238 356 inlet;
#X connect 0 0 1 1;
#X connect 0 1 1 0;
#X connect 1 0 9 0;
#X connect 2 0 0 0;
#X connect 3 0 2 0;
#X connect 4 0 15 0;
#X connect 5 0 12 0;
#X connect 8 0 9 1;
#X connect 9 0 4 0;
#X connect 12 0 14 0;
#X connect 12 1 2 0;
#X connect 13 0 3 0;
#X connect 14 0 13 0;
#X connect 15 0 21 0;
#X connect 15 1 16 0;
#X connect 17 0 13 0;
#X connect 17 0 16 0;
#X connect 18 0 19 0;
#X connect 19 0 20 0;
#X connect 20 1 15 1;
#X connect 20 1 22 0;
#X connect 21 0 16 0;
#X connect 21 1 17 0;
#X connect 22 0 21 1;
#X connect 23 0 19 0;
