#N canvas 1245 392 263 295 10;
#X obj -6 23 inlet;
#X obj 88 104 + 1;
#X obj 182 124 wrap;
#X obj 88 124 tabread \$1;
#X obj 88 148 *;
#X obj -6 177 *;
#X obj -6 148 tabread \$1;
#X obj -6 216 +;
#X obj -6 249 outlet;
#X obj 182 173 + 1;
#X obj 182 150 * -1;
#X obj -6 44 route set;
#X msg -6 88 set \$1;
#X obj -6 66 symbol;
#X connect 0 0 11 0;
#X connect 1 0 2 0;
#X connect 1 0 3 0;
#X connect 2 0 4 1;
#X connect 2 0 10 0;
#X connect 3 0 4 0;
#X connect 4 0 7 1;
#X connect 5 0 7 0;
#X connect 6 0 5 0;
#X connect 7 0 8 0;
#X connect 9 0 5 1;
#X connect 10 0 9 0;
#X connect 11 0 13 0;
#X connect 11 1 1 0;
#X connect 11 1 6 0;
#X connect 12 0 6 0;
#X connect 12 0 3 0;
#X connect 13 0 12 0;
