#N canvas 360 396 324 291 10;
#X obj 75 94 *~;
#X obj 88 229 s~ \$0-fb;
#X obj 75 39 r~ \$0-fb;
#X obj 139 39 clip -0.99999 0.99999;
#X obj 139 18 r lv_wg-fb;
#X obj 29 38 inlet~;
#X obj 75 252 outlet~;
#X obj 75 184 inlet~;
#X obj 75 205 vd~ \$0-wg \$1;
#X obj 76 150 delwrite~ \$0-wg 50;
#X obj 114 106 r lv_wg-filter;
#X obj 75 126 lop~ 500;
#X obj 139 61 sig~;
#X connect 0 0 11 0;
#X connect 2 0 0 0;
#X connect 3 0 12 0;
#X connect 4 0 3 0;
#X connect 5 0 9 0;
#X connect 7 0 8 0;
#X connect 8 0 1 0;
#X connect 8 0 6 0;
#X connect 10 0 11 1;
#X connect 11 0 9 0;
#X connect 12 0 0 1;
