#N canvas 92 204 189 472 10;
#X msg 28 272 1 \$1;
#X obj 28 293 -;
#X obj 28 314 /;
#X obj 28 251 t f f;
#X obj 78 272 *;
#X obj 28 230 f;
#X obj 66 213 t b f;
#X obj 78 293 + 1;
#X msg 28 335 1 \$1;
#X obj 28 356 -;
#X obj 40 97 moses 0;
#X obj 79 118 * 8;
#X obj 28 24 inlet x;
#X obj 28 407 outlet y;
#X obj 40 58 inlet curve -1 1;
#X obj 40 160 t b;
#X obj 40 139 moses -0.98;
#X msg 40 181 -0.98;
#X connect 0 0 1 0;
#X connect 1 0 2 0;
#X connect 2 0 8 0;
#X connect 3 0 0 0;
#X connect 3 1 4 0;
#X connect 4 0 7 0;
#X connect 5 0 3 0;
#X connect 6 0 5 0;
#X connect 6 1 4 1;
#X connect 7 0 2 1;
#X connect 8 0 9 0;
#X connect 9 0 13 0;
#X connect 10 0 16 0;
#X connect 10 1 11 0;
#X connect 11 0 6 0;
#X connect 12 0 5 0;
#X connect 14 0 10 0;
#X connect 15 0 17 0;
#X connect 16 0 15 0;
#X connect 16 1 6 0;
#X connect 17 0 6 0;
