#N canvas 1069 22 425 584 10;
#X obj 147 362 line~;
#X obj 147 394 tabread4~ samp1;
#X obj 177 250 / 44.1;
#X obj 147 272 f;
#X obj 177 272 f;
#X obj 147 314 pack f f;
#X msg 147 336 0 \, \$1 \$2;
#X obj 177 294 * 1;
#X obj 150 177 loadbang;
#X msg 150 199 44100;
#X text 58 199 sample length;
#X obj 252 177 klib/k.midiscale 74;
#X obj 132 500 throw~ twinkle;
#X obj 252 67 inlet;
#X obj 56 380 tabread4~ env;
#X obj 132 418 *~;
#X obj 55 311 line~;
#X msg 55 285 0 \, 512 1000;
#X obj 150 222 t f f b;
#X obj 252 244 t b b f b;
#X obj 252 89 unpack f f;
#X obj 252 111 == \$1;
#X obj 252 133 sel 1;
#X obj 252 155 f;
#X obj 132 470 *~ 1;
#X obj 172 453 r _gain_harpnote;
#X obj 132 440 *~ 0.2;
#X connect 0 0 1 0;
#X connect 1 0 15 1;
#X connect 2 0 4 1;
#X connect 3 0 5 0;
#X connect 4 0 7 0;
#X connect 5 0 6 0;
#X connect 6 0 0 0;
#X connect 7 0 5 1;
#X connect 8 0 9 0;
#X connect 9 0 18 0;
#X connect 11 0 19 0;
#X connect 13 0 20 0;
#X connect 14 0 15 0;
#X connect 15 0 26 0;
#X connect 16 0 14 0;
#X connect 17 0 16 0;
#X connect 18 0 3 1;
#X connect 18 1 2 0;
#X connect 19 0 3 0;
#X connect 19 1 4 0;
#X connect 19 2 7 1;
#X connect 19 3 17 0;
#X connect 20 0 21 0;
#X connect 20 1 23 1;
#X connect 21 0 22 0;
#X connect 22 0 23 0;
#X connect 23 0 11 0;
#X connect 24 0 12 0;
#X connect 25 0 24 1;
#X connect 26 0 24 0;
