#N canvas 566 227 1024 784 10;
#X declare -path heavylib;
#X obj 365 341 lop~ 30;
#X obj 123 68 loadbang;
#X obj 619 709 lop~ 20;
#X obj 619 641 sig~ 1;
#X obj 619 663 -~;
#X obj 365 363 *~ 0.75;
#X obj 365 387 -~ 0.75;
#X obj 365 201 k.ramp~ 0 0.3;
#X obj 577 264 send~ \$0-x;
#X obj 667 264 send~ \$0-y;
#X obj 757 264 send~ \$0-z;
#X obj 346 170 receive~ \$0-x;
#X obj 365 319 receive~ \$0-z;
#X obj 581 135 hsl 128 15 0 1 0 0 empty empty empty -2 -8 0 10 -262144
-1 -1 0 1;
#X obj 577 156 sig~;
#X obj 670 156 hsl 128 15 0 1 0 0 empty empty empty -2 -8 0 10 -262144
-1 -1 0 1;
#X obj 760 176 hsl 128 15 0 1 0 0 empty empty empty -2 -8 0 10 -262144
-1 -1 9567 1;
#X obj 757 196 sig~;
#X floatatom 236 60 5 0 0 0 - - -, f 5;
#X floatatom 289 60 5 0 0 0 - - -, f 5;
#X floatatom 342 60 5 0 0 0 - - -, f 5;
#X obj 193 92 bng 15 250 50 0 empty empty empty 17 7 0 10 -262144 -1
-1;
#X obj 577 178 lop~ 5;
#X floatatom 45 375 5 0 0 0 - - -, f 5;
#X obj 573 389 sig~ 1;
#X obj 684 641 receive~ \$0-y;
#X obj 45 331 loadbang;
#X msg 45 353 8000;
#X obj 580 34 declare -path heavylib;
#X obj 619 686 *~ -16;
#X obj 573 517 osc~ 5;
#X obj 573 622 *~;
#X floatatom 591 560 5 0 0 0 - - -, f 5;
#X obj 173 131 + 20;
#X obj 223 130 + 8;
#X obj 123 131 + 39;
#X obj 365 220 k.ramp~ 0.33 0.3;
#X obj 667 211 +~ 0.5;
#X obj 573 452 r modFreq @hv_param 0 20000 127;
#X obj 365 240 k.ramp~ 1 0.66;
#X obj 123 522 +~;
#X obj 591 538 r modAmount @hv_param 0 100 0;
#X obj 122 601 *~;
#X obj 193 540 r volume @hv_param 0 1 1;
#X obj 667 233 lop~ 5;
#X obj 757 218 lop~ 5;
#X obj 193 562 sig~;
#X obj 573 474 sig~;
#X obj 573 496 lop~ 5;
#X obj 591 578 sig~;
#X obj 591 600 lop~ 5;
#X floatatom 633 161 5 0 0 0 - - -, f 5;
#X obj 122 559 hv.tanh;
#X floatatom 646 488 5 0 0 0 - - -, f 5;
#X obj 667 106 r pitch @hv_param 0 1 0.5;
#X obj 578 86 r voiceCentre @hv_param 0 1 1;
#X obj 757 126 r harmonicCentre @hv_param 0 1 1;
#X obj 463 64 r \$1;
#X obj 123 95 f \$2;
#X msg 86 72 20;
#X obj 121 633 throw~ magnetOut;
#X obj 193 584 lop~ 2;
#X obj 398 99 k.map 333 2000 0 1;
#X obj 398 120 clip 0 1;
#X obj 503 329 clip 0 1;
#X obj 651 335 clip 0 1;
#X obj 503 350 sig~;
#X floatatom 412 68 5 0 0 0 - - -, f 5;
#X obj 405 43 r \$3;
#X obj 367 146 +;
#X obj 686 187 sig~ 0.425;
#X obj 667 176 sig~;
#X obj 451 134 k.map 333 3333 0 0.25;
#X obj 504 308 k.map 888 2000 0 -0.0111;
#X obj 651 314 k.map 888 4000 0.66 0.333;
#X obj 123 431 vangex \$0;
#X obj 193 432 vangex \$0;
#X obj 573 415 s~ \$0_gain;
#X obj 619 741 s~ \$0_fmod;
#X obj 263 432 vangex \$0;
#X connect 0 0 5 0;
#X connect 1 0 58 0;
#X connect 2 0 78 0;
#X connect 3 0 4 0;
#X connect 4 0 29 0;
#X connect 5 0 6 0;
#X connect 6 0 75 2;
#X connect 6 0 76 2;
#X connect 6 0 79 2;
#X connect 7 0 75 1;
#X connect 11 0 7 0;
#X connect 11 0 36 0;
#X connect 11 0 39 0;
#X connect 12 0 0 0;
#X connect 13 0 14 0;
#X connect 14 0 22 0;
#X connect 15 0 71 0;
#X connect 16 0 17 0;
#X connect 17 0 45 0;
#X connect 18 0 21 0;
#X connect 18 0 33 1;
#X connect 19 0 21 0;
#X connect 19 0 34 1;
#X connect 20 0 21 0;
#X connect 21 0 58 0;
#X connect 22 0 8 0;
#X connect 23 0 75 3;
#X connect 23 0 76 3;
#X connect 23 0 79 3;
#X connect 24 0 77 0;
#X connect 25 0 4 1;
#X connect 26 0 27 0;
#X connect 27 0 23 0;
#X connect 29 0 2 0;
#X connect 30 0 31 0;
#X connect 31 0 78 0;
#X connect 32 0 49 0;
#X connect 33 0 76 0;
#X connect 34 0 79 0;
#X connect 35 0 75 0;
#X connect 36 0 76 1;
#X connect 37 0 44 0;
#X connect 38 0 47 0;
#X connect 39 0 79 1;
#X connect 40 0 52 0;
#X connect 41 0 32 0;
#X connect 42 0 60 0;
#X connect 43 0 46 0;
#X connect 44 0 9 0;
#X connect 45 0 10 0;
#X connect 46 0 61 0;
#X connect 47 0 48 0;
#X connect 48 0 30 0;
#X connect 49 0 50 0;
#X connect 50 0 31 1;
#X connect 51 0 15 0;
#X connect 52 0 42 0;
#X connect 53 0 47 0;
#X connect 54 0 15 0;
#X connect 55 0 13 0;
#X connect 56 0 16 0;
#X connect 57 0 62 0;
#X connect 57 0 72 0;
#X connect 57 0 73 0;
#X connect 57 0 74 0;
#X connect 58 0 34 0;
#X connect 58 0 33 0;
#X connect 58 0 35 0;
#X connect 59 0 58 0;
#X connect 61 0 42 1;
#X connect 62 0 13 0;
#X connect 62 0 63 0;
#X connect 63 0 69 1;
#X connect 64 0 66 0;
#X connect 65 0 16 0;
#X connect 66 0 37 0;
#X connect 68 0 67 0;
#X connect 68 0 69 0;
#X connect 69 0 46 0;
#X connect 70 0 37 0;
#X connect 71 0 37 0;
#X connect 72 0 13 0;
#X connect 73 0 64 0;
#X connect 74 0 65 0;
#X connect 75 0 40 0;
#X connect 76 0 40 0;
#X connect 79 0 40 0;
