#N canvas 900 168 456 453 10;
#X obj 39 117 oscparse;
#X obj 39 138 list trim;
#X msg 127 49 listen 0;
#X obj 90 254 s maxpressure;
#X msg 127 67 listen 8833;
#X obj 39 94 netreceive -u -b;
#X obj 39 306 s totalPressure;
#N canvas 633 390 367 191 vizualisation 0;
#X obj 23 23 inlet;
#N canvas 0 361 698 599 viz 0;
#N canvas 0 50 450 250 (subpatch) 0;
#X array x1 16 float 3;
#A 0 0 0 0 0 0 0 0 0 0 0 0 0 0 0 0 0;
#X coords 0 1 16 0 528 33 1 0 0;
#X restore 79 21 graph;
#N canvas 0 50 450 250 (subpatch) 0;
#X array x2 16 float 3;
#A 0 0 0 0 0 0 0 0 0 0 0 0 0 0 0 0 0;
#X coords 0 1 16 0 528 33 1 0 0;
#X restore 79 54 graph;
#N canvas 0 50 450 250 (subpatch) 0;
#X array x3 16 float 3;
#A 0 0 0 0.0045045 0.00788288 0.0146396 0.0135135 0.00900901 0.0112613
0 0 0 0 0 0 0 0;
#X coords 0 1 16 0 528 33 1 0 0;
#X restore 79 87 graph;
#N canvas 0 50 450 250 (subpatch) 0;
#X array x4 16 float 3;
#A 0 0 0 0 0 0.0101351 0.0101351 0.00675676 0.00563063 0 0 0 0 0 0
0 0;
#X coords 0 1 16 0 528 33 1 0 0;
#X restore 79 120 graph;
#N canvas 0 50 450 250 (subpatch) 0;
#X array x5 16 float 3;
#A 0 0 0 0.00337838 0.00563063 0.0135135 0.0146396 0.0112613 0.0112613
0 0 0 0 0 0 0 0;
#X coords 0 1 16 0 528 33 1 0 0;
#X restore 79 153 graph;
#N canvas 0 50 450 250 (subpatch) 0;
#X array x6 16 float 3;
#A 0 0 0 0 0.0045045 0.0146396 0.0123874 0.0123874 0.00675676 0 0 0
0 0 0 0 0;
#X coords 0 1 16 0 528 33 1 0 0;
#X restore 79 186 graph;
#N canvas 0 50 450 250 (subpatch) 0;
#X array x7 16 float 3;
#A 0 0 0 0.00563063 0.0045045 0.0112613 0.0112613 0.0101351 0.0112613
0 0 0 0 0 0 0 0;
#X coords 0 1 16 0 528 33 1 0 0;
#X restore 79 219 graph;
#N canvas 0 50 450 250 (subpatch) 0;
#X array x8 16 float 3;
#A 0 0.00900901 0.00900901 0.00563063 0.00563063 0.0146396 0.0135135
0.0146396 0.00900901 0 0 0 0 0 0 0 0;
#X coords 0 1 16 0 528 33 1 0 0;
#X restore 79 252 graph;
#N canvas 0 50 450 250 (subpatch) 0;
#X array x9 16 float 3;
#A 0 0 0 0.00112613 0.00337838 0.0146396 0.00675676 0.00675676 0.00563063
0 0 0 0 0 0 0 0;
#X coords 0 1 16 0 528 33 1 0 0;
#X restore 79 285 graph;
#N canvas 0 50 450 250 (subpatch) 0;
#X array x10 16 float 3;
#A 0 0 0 0.00563063 0.00563063 0.0135135 0.0101351 0.0112613 0.00788288
0 0 0 0 0 0 0 0;
#X coords 0 1 16 0 528 33 1 0 0;
#X restore 79 318 graph;
#N canvas 0 50 450 250 (subpatch) 0;
#X array x11 16 float 3;
#A 0 0 0 0.00563063 0.00563063 0.0157658 0.0123874 0.0123874 0.0112613
0 0 0 0 0 0 0 0;
#X coords 0 1 16 0 528 33 1 0 0;
#X restore 79 351 graph;
#N canvas 0 50 450 250 (subpatch) 0;
#X array x12 16 float 3;
#A 0 0 0 0.00337838 0.00563063 0.0112613 0.00675676 0.00675676 0.00788288
0 0 0 0 0 0 0 0;
#X coords 0 1 16 0 528 33 1 0 0;
#X restore 79 384 graph;
#N canvas 0 50 450 250 (subpatch) 0;
#X array x13 16 float 3;
#A 0 0 0 0.00563063 0.00337838 0.0146396 0.00675676 0.00900901 0.0101351
0 0 0 0 0 0 0 0;
#X coords 0 1 16 0 528 33 1 0 0;
#X restore 79 417 graph;
#N canvas 0 50 450 250 (subpatch) 0;
#X array x14 16 float 3;
#A 0 0 0 0 0 0.0112613 0.00337838 0.0045045 0.00337838 0 0 0 0 0 0
0 0;
#X coords 0 1 16 0 528 33 1 0 0;
#X restore 79 450 graph;
#N canvas 0 50 450 250 (subpatch) 0;
#X array x15 16 float 3;
#A 0 0 0 0 0 0.00563063 0.00112613 0.0045045 0.00112613 0 0 0 0 0 0
0 0;
#X coords 0 1 16 0 528 33 1 0 0;
#X restore 79 483 graph;
#N canvas 0 50 450 250 (subpatch) 0;
#X array x16 16 float 3;
#A 0 0.00900901 0.00900901 0.00563063 0.00563063 0.0146396 0.0135135
0.0146396 0.00900901 0 0 0 0 0 0 0 0;
#X coords 0 1 16 0 528 33 1 0 0;
#X restore 79 516 graph;
#X restore 278 78 pd viz;
#X obj 23 56 route raw1 raw2;
#N canvas 0 50 616 559 write-table 0;
#X obj 273 388 list split;
#X obj 273 365 list;
#X obj 299 186 until;
#X obj 299 288 f;
#X obj 413 91 + 1;
#X obj 413 113 t f f;
#X obj 413 158 t b b;
#X msg 301 409 \$1;
#X obj 299 309 t f f;
#X msg 440 207 0, f 1;
#X obj 440 187 t b b;
#X obj 299 90 t b l;
#X obj 301 451 tabwrite x1;
#X obj 301 430 / 888;
#X msg 176 283 set x1;
#X msg 176 303 set x2;
#X msg 176 323 set x3;
#X msg 176 343 set x4;
#X msg 176 363 set x5;
#X msg 176 383 set x6;
#X msg 176 403 set x7;
#X msg 176 423 set x8;
#X obj 67 194 sel 1 2 3 4 5 6 7 8;
#X obj 440 394 wrap;
#X obj 407 411 -;
#X obj 407 371 t f f;
#X obj 407 350 / 16;
#X obj 479 412 % 16;
#X text 391 412 y;
#X text 463 413 x;
#X obj 326 330 t b f f f;
#X obj 413 136 sel 127;
#X obj 299 53 inlet;
#X connect 0 1 7 0;
#X connect 1 0 0 0;
#X connect 2 0 3 0;
#X connect 3 0 8 0;
#X connect 4 0 5 0;
#X connect 5 0 31 0;
#X connect 5 1 3 1;
#X connect 6 0 2 1;
#X connect 6 1 10 0;
#X connect 7 0 13 0;
#X connect 8 0 4 0;
#X connect 8 1 30 0;
#X connect 9 0 3 1;
#X connect 10 0 9 0;
#X connect 11 0 2 0;
#X connect 11 1 1 1;
#X connect 13 0 12 0;
#X connect 14 0 12 0;
#X connect 15 0 12 0;
#X connect 16 0 12 0;
#X connect 17 0 12 0;
#X connect 18 0 12 0;
#X connect 19 0 12 0;
#X connect 20 0 12 0;
#X connect 21 0 12 0;
#X connect 22 0 14 0;
#X connect 22 1 15 0;
#X connect 22 2 16 0;
#X connect 22 3 17 0;
#X connect 22 4 18 0;
#X connect 22 5 19 0;
#X connect 22 6 20 0;
#X connect 22 7 21 0;
#X connect 23 0 24 1;
#X connect 24 0 22 0;
#X connect 25 0 24 0;
#X connect 25 1 23 0;
#X connect 26 0 25 0;
#X connect 27 0 12 1;
#X connect 30 0 1 0;
#X connect 30 1 0 1;
#X connect 30 2 27 0;
#X connect 30 3 26 0;
#X connect 31 0 6 0;
#X connect 32 0 11 0;
#X restore 23 78 pd write-table 1-8;
#N canvas 0 50 592 465 write-table 0;
#X obj 285 341 list split;
#X obj 285 318 list;
#X obj 311 139 until;
#X obj 311 241 f;
#X obj 425 44 + 1;
#X obj 425 66 t f f;
#X obj 425 111 t b b;
#X msg 313 362 \$1;
#X obj 311 262 t f f;
#X msg 452 160 0, f 1;
#X obj 452 140 t b b;
#X obj 311 43 t b l;
#X obj 313 404 tabwrite x1;
#X obj 313 383 / 888;
#X obj 452 347 wrap;
#X obj 419 364 -;
#X obj 419 324 t f f;
#X obj 419 303 / 16;
#X obj 491 365 % 16;
#X text 403 365 y;
#X text 475 366 x;
#X obj 338 283 t b f f f;
#X obj 425 89 sel 127;
#X msg 188 236 set x9;
#X msg 188 256 set x10;
#X msg 188 276 set x11;
#X msg 188 296 set x12;
#X msg 188 316 set x13;
#X msg 188 337 set x14;
#X msg 188 356 set x15;
#X msg 188 376 set x16;
#X obj 311 14 inlet;
#X obj 79 147 sel 1 2 3 4 5 6 7 8;
#X connect 0 1 7 0;
#X connect 1 0 0 0;
#X connect 2 0 3 0;
#X connect 3 0 8 0;
#X connect 4 0 5 0;
#X connect 5 0 22 0;
#X connect 5 1 3 1;
#X connect 6 0 2 1;
#X connect 6 1 10 0;
#X connect 7 0 13 0;
#X connect 8 0 4 0;
#X connect 8 1 21 0;
#X connect 9 0 3 1;
#X connect 10 0 9 0;
#X connect 11 0 2 0;
#X connect 11 1 1 1;
#X connect 13 0 12 0;
#X connect 14 0 15 1;
#X connect 15 0 32 0;
#X connect 16 0 15 0;
#X connect 16 1 14 0;
#X connect 17 0 16 0;
#X connect 18 0 12 1;
#X connect 21 0 1 0;
#X connect 21 1 0 1;
#X connect 21 2 18 0;
#X connect 21 3 17 0;
#X connect 22 0 6 0;
#X connect 23 0 12 0;
#X connect 24 0 12 0;
#X connect 25 0 12 0;
#X connect 26 0 12 0;
#X connect 27 0 12 0;
#X connect 28 0 12 0;
#X connect 29 0 12 0;
#X connect 30 0 12 0;
#X connect 31 0 11 0;
#X connect 32 0 23 0;
#X connect 32 1 24 0;
#X connect 32 2 25 0;
#X connect 32 3 26 0;
#X connect 32 4 27 0;
#X connect 32 5 28 0;
#X connect 32 6 29 0;
#X connect 32 7 30 0;
#X restore 144 78 pd write-table 9-16;
#X text 152 55 FIX ME :);
#X text 22 116 N.B. send raw values by uncommenting lines 182 \, 183
of DBScanLib.py;
#X text 22 146 N.B. may impact performance;
#X connect 0 0 2 0;
#X connect 2 0 3 0;
#X connect 2 1 4 0;
#X restore 315 171 pd vizualisation;
#X obj 39 171 route totalPressure maxpressure areas cx cy;
#X obj 39 26 loadbang;
#X floatatom 49 193 5 0 0 0 - - -, f 5;
#X floatatom 99 193 5 0 0 0 - - -, f 5;
#X obj 39 47 f \$1;
#X msg 39 67 listen \$1;
#X obj 97 26 inlet;
#X obj 224 208 unpack f f f f f;
#X obj 224 230 pressuremap;
#X obj 205 365 pack f f f f f;
#X obj 246 250 pressuremap;
#X obj 270 270 pressuremap;
#X obj 293 290 pressuremap;
#X obj 313 310 pressuremap;
#X obj 224 279 s _a1;
#X obj 246 299 s _a2;
#X obj 269 319 s _a3;
#X obj 293 339 s _a4;
#X obj 313 359 s _a5;
#X obj 205 386 s areas;
#X obj 39 282 pressuremap;
#X obj 90 232 pressuremap;
#X floatatom 224 100 5 0 0 0 - - -, f 5;
#X msg 224 120 \$1 \$1 \$1 \$1 \$1;
#X text 260 100 <<< test all values;
#X connect 0 0 1 0;
#X connect 1 0 8 0;
#X connect 1 0 7 0;
#X connect 2 0 5 0;
#X connect 4 0 5 0;
#X connect 5 0 0 0;
#X connect 8 0 10 0;
#X connect 8 0 28 0;
#X connect 8 1 11 0;
#X connect 8 1 29 0;
#X connect 8 2 15 0;
#X connect 9 0 12 0;
#X connect 12 0 13 0;
#X connect 13 0 5 0;
#X connect 14 0 12 0;
#X connect 15 0 16 0;
#X connect 15 1 18 0;
#X connect 15 2 19 0;
#X connect 15 3 20 0;
#X connect 15 4 21 0;
#X connect 16 0 22 0;
#X connect 16 0 17 0;
#X connect 17 0 27 0;
#X connect 18 0 23 0;
#X connect 18 0 17 1;
#X connect 19 0 24 0;
#X connect 19 0 17 2;
#X connect 20 0 25 0;
#X connect 20 0 17 3;
#X connect 21 0 26 0;
#X connect 21 0 17 4;
#X connect 28 0 6 0;
#X connect 29 0 3 0;
#X connect 30 0 28 0;
#X connect 30 0 31 0;
#X connect 31 0 15 0;
