#N canvas 552 84 992 940 10;
#X declare -path heavylib;
#X declare -path klib;
#X obj 36 323 delwrite~ \$0-d 1000;
#X obj -55 564 vd~ \$0-d;
#N canvas 823 315 505 553 pitchshift 0;
#X floatatom 92 87 0 0 0 0 - - -;
#X obj 155 358 *~;
#X obj 278 295 line~;
#X floatatom 310 112 0 0 0 0 - - -;
#X text 141 9 PITCH SHIFTER;
#X obj 278 269 pack 0 200;
#X obj 92 143 exp;
#X floatatom 92 169 6 0 0 0 - - -, f 6;
#X obj 92 259 /;
#X obj 219 189 * 0.001;
#X obj 387 365 line~;
#X obj 387 340 pack 0 200;
#X floatatom 387 289 0 0 0 0 - - -;
#X obj 387 263 r delay;
#X obj 155 384 +~;
#X obj 92 410 cos~;
#X obj 92 437 *~;
#X obj 92 466 +~;
#X obj 179 317 wrap~;
#X obj 324 360 *~;
#X obj 324 393 +~;
#X obj 261 420 cos~;
#X obj 261 447 *~;
#X obj 219 216 t b f;
#X floatatom 92 285 6 0 0 0 - - -, f 6;
#X obj 179 290 +~ 0.5;
#X obj 92 358 -~ 0.5;
#X obj 92 384 *~ 0.5;
#X obj 261 359 -~ 0.5;
#X obj 261 392 *~ 0.5;
#X obj 92 196 - 1;
#X obj 92 117 * 0.05776;
#X obj 92 222 * -1;
#X text 126 86 <-- transposition;
#X text 169 99 (halftones);
#X text 155 163 speed;
#X text 154 177 change;
#X text 354 111 <--window (msec);
#X text 127 252 tape head;
#X obj 92 316 phasor~;
#X obj 387 316 max 1.5;
#X text 390 222 delay;
#X text 387 240 (msec);
#X obj 310 139 max 1;
#X text 128 265 rotation freq;
#X obj 155 410 vd~ G09-del;
#X obj 324 422 vd~ G09-del;
#X obj 11 15 delwrite~ G09-del 5000;
#X obj 92 488 outlet~;
#X obj 11 -16 inlet~;
#X obj 310 86 inlet;
#X obj 92 62 inlet;
#X connect 0 0 31 0;
#X connect 1 0 14 0;
#X connect 2 0 1 1;
#X connect 2 0 19 1;
#X connect 3 0 43 0;
#X connect 5 0 2 0;
#X connect 6 0 7 0;
#X connect 7 0 30 0;
#X connect 8 0 24 0;
#X connect 9 0 23 0;
#X connect 10 0 14 1;
#X connect 10 0 20 1;
#X connect 11 0 10 0;
#X connect 12 0 40 0;
#X connect 13 0 12 0;
#X connect 14 0 45 0;
#X connect 15 0 16 0;
#X connect 16 0 17 0;
#X connect 17 0 48 0;
#X connect 18 0 19 0;
#X connect 18 0 28 0;
#X connect 19 0 20 0;
#X connect 20 0 46 0;
#X connect 21 0 22 0;
#X connect 22 0 17 1;
#X connect 23 0 8 0;
#X connect 23 1 8 1;
#X connect 24 0 39 0;
#X connect 25 0 18 0;
#X connect 26 0 27 0;
#X connect 27 0 15 0;
#X connect 28 0 29 0;
#X connect 29 0 21 0;
#X connect 30 0 32 0;
#X connect 31 0 6 0;
#X connect 32 0 8 0;
#X connect 39 0 1 0;
#X connect 39 0 26 0;
#X connect 39 0 25 0;
#X connect 40 0 11 0;
#X connect 43 0 9 0;
#X connect 43 0 5 0;
#X connect 45 0 16 1;
#X connect 46 0 22 1;
#X connect 49 0 47 0;
#X connect 50 0 3 0;
#X connect 51 0 0 0;
#X restore -55 613 pd pitchshift;
#X obj -56 691 *~ 0.9;
#X obj 36 254 r~ \$0-fb;
#X obj -110 780 s~ \$0-fb;
#X obj 11 512 sig~;
#X obj -56 735 hip~ 5;
#X obj -55 289 catch~ twinkle;
#X obj -56 635 lop~ 2000;
#X obj -55 457 r~ \$0-fb;
#X obj -55 479 *~ 0.99;
#X obj 36 289 hip~ 100;
#X obj 11 534 lop~ 5;
#X obj 644 26 r distort @hv_param 0 1 0;
#X obj 647 48 hsl 128 15 0 1 0 0 empty empty empty -2 -8 0 10 -262144
-1 -1 0 1;
#X obj 644 68 s _distort;
#X obj 647 118 hsl 128 15 -12 12 0 0 empty empty empty -2 -8 0 10 -262144
-1 -1 12600 1;
#X obj 644 96 r pitchdelta @hv_param -12 12 2;
#X obj 644 138 s _pitchdelta;
#X obj 647 188 hsl 128 15 1 200 0 0 empty empty empty -2 -8 0 10 -262144
-1 -1 2200 1;
#X obj 644 208 s _delaytime;
#X obj 70 477 r _delaytime;
#X obj 69 422 r _distort;
#X obj -18 587 r _pitchdelta;
#X floatatom 804 138 5 0 0 0 - - -, f 5;
#X floatatom 804 208 5 0 0 0 - - -, f 5;
#X obj 67 654 r _feedback;
#X obj 647 258 hsl 128 15 0 0.999 0 0 empty empty empty -2 -8 0 10
-262144 -1 -1 11500 1;
#X floatatom 804 278 5 0 0 0 - - -, f 5;
#X obj 644 278 s _feedback;
#X obj 644 236 r feedback @hv_param 0 0.999 0.9;
#X text -60 -25 ==============;
#X obj -56 713 hv.tanh;
#X obj 198 44 declare -path heavylib;
#X obj 198 64 declare -path klib;
#X obj 644 166 r delaytime @hv_param 1 200 40;
#X obj -55 371 *~ 1;
#X obj -34 351 r _gain_dry;
#X text -60 -35 POLYNATOR v0.2;
#X obj -56 781 *~ 1;
#X obj -34 761 r _gain_wet;
#X obj 647 398 hsl 128 15 0 0.999 0 0 empty empty empty -2 -8 0 10
-262144 -1 -1 0 1;
#X floatatom 804 418 5 0 0 0 - - -, f 5;
#X obj 644 376 r gain_dry @hv_param 0 1 0.5;
#X obj 644 418 s _gain_dry;
#X obj 647 468 hsl 128 15 0 0.999 0 0 empty empty empty -2 -8 0 10
-262144 -1 -1 0 1;
#X floatatom 804 488 5 0 0 0 - - -, f 5;
#X obj 644 446 r gain_wet @hv_param 0 1 0.5;
#X obj 644 488 s _gain_wet;
#X floatatom 804 68 5 0 0 0 - - -, f 5;
#X text -57 33 generators;
#X text -57 43 ---;
#X text -57 213 ---;
#X text -57 203 output;
#X obj 245 785 *;
#X obj 223 619 r _delaytime;
#X obj 233 642 r _feedback;
#X obj 233 730 t b f;
#X obj 223 757 f;
#X obj 230 809 f;
#X msg 230 831 0 \, 1 \$1;
#X obj 230 853 line;
#X obj 230 874 s ramp @hv_param;
#X obj 267 755 s bands @hv_param;
#X obj 233 706 * 16;
#X obj 183 596 r noteTriggered;
#X obj 70 565 loadbang;
#X msg 70 587 20;
#X obj 309 642 r scaleRamp @hv_param 0 2 1;
#X obj 233 684 f;
#X obj 309 667 t b f;
#X obj 336 689 * 16;
#X obj 232 271 throw~ twinkle;
#X obj 232 233 adc~;
#X obj 250 370;
#X obj 261 176 r~ _samplerOut;
#X obj -84 818 s~ _polynatorOut;
#X connect 1 0 2 0;
#X connect 2 0 9 0;
#X connect 3 0 33 0;
#X connect 4 0 12 0;
#X connect 6 0 13 0;
#X connect 7 0 5 0;
#X connect 7 0 40 0;
#X connect 8 0 0 0;
#X connect 8 0 37 0;
#X connect 9 0 3 0;
#X connect 10 0 11 0;
#X connect 11 0 1 0;
#X connect 12 0 0 0;
#X connect 13 0 1 0;
#X connect 14 0 15 0;
#X connect 15 0 16 0;
#X connect 15 0 50 0;
#X connect 17 0 19 0;
#X connect 17 0 25 0;
#X connect 18 0 17 0;
#X connect 20 0 21 0;
#X connect 20 0 26 0;
#X connect 22 0 6 0;
#X connect 23 0 11 1;
#X connect 24 0 2 1;
#X connect 27 0 3 1;
#X connect 28 0 29 0;
#X connect 28 0 30 0;
#X connect 31 0 28 0;
#X connect 33 0 7 0;
#X connect 36 0 20 0;
#X connect 37 0 77 0;
#X connect 38 0 37 1;
#X connect 40 0 77 0;
#X connect 41 0 40 1;
#X connect 42 0 43 0;
#X connect 42 0 45 0;
#X connect 44 0 42 0;
#X connect 46 0 47 0;
#X connect 46 0 49 0;
#X connect 48 0 46 0;
#X connect 55 0 60 1;
#X connect 56 0 59 0;
#X connect 57 0 70 0;
#X connect 58 0 59 0;
#X connect 58 1 55 1;
#X connect 58 1 64 0;
#X connect 59 0 55 0;
#X connect 60 0 61 0;
#X connect 61 0 62 0;
#X connect 62 0 63 0;
#X connect 65 0 58 0;
#X connect 66 0 60 0;
#X connect 67 0 68 0;
#X connect 68 0 2 2;
#X connect 69 0 71 0;
#X connect 70 0 65 0;
#X connect 71 0 70 0;
#X connect 71 1 72 0;
#X connect 72 0 65 1;
#X connect 76 0 73 0;
