#N canvas 0 23 368 275 10;
#X obj 192 54 r pressureMin;
#X obj 192 74 r pressureMax;
#X obj 192 94 r pressureCurve;
#X obj 79 146 clip 0 1;
#X obj 79 125 k.map 111 888 0 1;
#X obj 79 167 expcurve;
#X obj 79 104 inlet;
#X obj 79 188 outlet;
#X connect 0 0 4 1;
#X connect 1 0 4 2;
#X connect 2 0 5 1;
#X connect 3 0 5 0;
#X connect 4 0 3 0;
#X connect 5 0 7 0;
#X connect 6 0 4 0;
