#N canvas 0 50 263 177 10;
#X obj 70 72 -;
#X obj 110 70 f;
#X obj 65 48 t f f;
#X obj 70 93 t f b;
#X obj 70 135 abs;
#X obj 69 24 inlet;
#X obj 70 177 outlet;
#X obj 70 114 k.smooth \$1;
#X obj 70 156 / \$2;
#X connect 0 0 3 0;
#X connect 1 0 0 1;
#X connect 2 0 0 0;
#X connect 2 1 1 1;
#X connect 3 0 7 0;
#X connect 3 1 1 0;
#X connect 4 0 8 0;
#X connect 5 0 2 0;
#X connect 7 0 4 0;
#X connect 8 0 6 0;
