#N canvas 438 237 444 644 10;
#X obj 90 566 *~ 0.2;
#X obj 90 534 hip~ 8;
#X obj 90 513 catch~ res-out;
#X obj 87 468 s generateglobal;
#X obj 87 447 bng 15 250 50 0 empty empty empty 17 7 0 10 -262144 -1
-1;
#X obj 87 307 catch~ fb-global;
#X obj 87 421 s~ toall-res;
#X obj 87 350 hip~ 8;
#X floatatom 247 104 5 0 0 0 - - -, f 5;
#X floatatom 247 145 5 0 0 0 - - -, f 5;
#X floatatom 247 192 5 0 0 0 - - -, f 5;
#X floatatom 247 233 5 0 0 0 - - -, f 5;
#X floatatom 247 274 5 0 0 0 - - -, f 5;
#X obj 87 400 *~ 0.1;
#X obj 87 371 hv.tanh;
#X obj 247 171 + 3;
#X obj 247 212 + 5;
#X obj 247 124 + 4;
#X obj 247 253 + 2;
#X obj 83 146 resunit a 32 8 1 1;
#X floatatom 183 96 5 0 0 0 - - -, f 5;
#X obj 87 328 lop~ 8888;
#X obj 247 55 loadbang;
#X msg 302 55 62 66 69 74 76 81;
#X msg 247 75 62;
#X obj 83 166 resunit b 44 8 1 1;
#X obj 83 186 resunit c 48 8 1 1;
#X obj 83 206 resunit d 52 8 1 1;
#X obj 82 227 resunit e 55 8 1 1;
#X obj 90 587 s~ _resMultiOut;
#X connect 0 0 29 0;
#X connect 1 0 0 0;
#X connect 2 0 1 0;
#X connect 4 0 3 0;
#X connect 5 0 21 0;
#X connect 7 0 14 0;
#X connect 8 0 17 0;
#X connect 8 0 19 0;
#X connect 9 0 15 0;
#X connect 9 0 25 0;
#X connect 10 0 16 0;
#X connect 10 0 26 0;
#X connect 11 0 18 0;
#X connect 11 0 27 0;
#X connect 12 0 28 0;
#X connect 13 0 6 0;
#X connect 14 0 13 0;
#X connect 15 0 10 0;
#X connect 16 0 11 0;
#X connect 17 0 9 0;
#X connect 18 0 12 0;
#X connect 20 0 19 1;
#X connect 20 0 25 1;
#X connect 20 0 26 1;
#X connect 20 0 27 1;
#X connect 20 0 28 1;
#X connect 21 0 7 0;
#X connect 22 0 24 0;
#X connect 24 0 8 0;
