#N canvas 424 414 902 640 10;
#X obj 198 553 s~ \$0-fb;
#X obj 318 531 delread~ \$0-w2 9.1;
#X obj 131 363 r~ \$0-fb;
#X obj 131 415 *~ 0.1;
#X obj 198 531 delread~ \$0-w1 3;
#X obj 438 531 delread~ \$0-w3 2;
#X obj 131 385 lop~ 8000;
#X obj 712 216 r \$1-size;
#X obj 357 78 r \$1-resonance;
#X obj 467 78 r \$1-inharmonicity;
#X obj 712 238 unpack f f;
#X obj 448 283 klib/k.randgen;
#X obj 357 100 unpack f f;
#X obj 333 154 klib/k.randgen;
#X obj 467 100 unpack f f;
#X obj 443 154 klib/k.randgen;
#X obj 333 176 * 0.3;
#X obj 568 283 klib/k.randgen;
#X obj 688 283 klib/k.randgen;
#X obj 394 250 t b b b;
#X obj 333 26 r \$1-generate;
#X obj 198 401 inlet~;
#X obj 438 590 throw~ res-out;
#X obj 448 304 mtof;
#X msg 448 325 1000 \$1;
#X obj 448 346 /;
#X obj 568 304 mtof;
#X msg 568 325 1000 \$1;
#X obj 568 346 /;
#X obj 688 304 mtof;
#X msg 688 325 1000 \$1;
#X obj 688 346 /;
#X floatatom 458 376 5 0 0 0 - - -, f 5;
#X floatatom 582 385 5 0 0 0 - - -, f 5;
#X floatatom 685 392 5 0 0 0 - - -, f 5;
#X obj 438 471 delwrite~ \$0-w3 333;
#X obj 318 471 delwrite~ \$0-w2 333;
#X obj 198 471 delwrite~ \$0-w1 333;
#X obj 571 564 *~ 0.05;
#X obj 666 511 r feedbackglobal;
#X obj 570 584 throw~ fb-global;
#X obj 312 405 r~ toall-res;
#X connect 1 0 0 0;
#X connect 1 0 22 0;
#X connect 1 0 38 0;
#X connect 2 0 6 0;
#X connect 3 0 35 0;
#X connect 3 0 36 0;
#X connect 3 0 37 0;
#X connect 4 0 0 0;
#X connect 4 0 22 0;
#X connect 4 0 38 0;
#X connect 5 0 0 0;
#X connect 5 0 22 0;
#X connect 5 0 38 0;
#X connect 6 0 3 0;
#X connect 7 0 10 0;
#X connect 8 0 12 0;
#X connect 9 0 14 0;
#X connect 10 0 11 1;
#X connect 10 0 17 1;
#X connect 10 0 18 1;
#X connect 10 1 11 2;
#X connect 10 1 17 2;
#X connect 10 1 18 2;
#X connect 11 0 23 0;
#X connect 12 0 13 1;
#X connect 12 1 13 2;
#X connect 13 0 16 0;
#X connect 14 0 15 1;
#X connect 14 1 15 2;
#X connect 16 0 3 1;
#X connect 17 0 26 0;
#X connect 18 0 29 0;
#X connect 19 0 11 0;
#X connect 19 1 17 0;
#X connect 19 2 18 0;
#X connect 20 0 13 0;
#X connect 20 0 19 0;
#X connect 21 0 35 0;
#X connect 21 0 36 0;
#X connect 21 0 37 0;
#X connect 23 0 24 0;
#X connect 24 0 25 0;
#X connect 25 0 4 0;
#X connect 25 0 32 0;
#X connect 26 0 27 0;
#X connect 27 0 28 0;
#X connect 28 0 1 0;
#X connect 28 0 33 0;
#X connect 29 0 30 0;
#X connect 30 0 31 0;
#X connect 31 0 5 0;
#X connect 31 0 34 0;
#X connect 38 0 40 0;
#X connect 39 0 38 1;
#X connect 41 0 35 0;
#X connect 41 0 36 0;
#X connect 41 0 37 0;
