#N canvas 668 315 885 720 10;
#X obj 349 525 delwrite~ \$0-w1 50;
#X obj 349 607 s~ \$0-fb;
#X obj 469 525 delwrite~ \$0-w2 50;
#X obj 589 525 delwrite~ \$0-w3 50;
#X obj 469 585 delread~ \$0-w2 9.1;
#X obj 282 417 r~ \$0-fb;
#X obj 282 469 *~ 0.1;
#X obj 349 585 delread~ \$0-w1 3;
#X obj 589 585 delread~ \$0-w3 2;
#X obj 282 439 lop~ 8000;
#X obj 623 311 r \$1-size;
#X obj 508 132 r \$1-resonance;
#X obj 623 333 unpack f f;
#X obj 599 387 klib/k.randgen;
#X obj 43 42 r \$1-trig;
#X obj 508 154 unpack f f;
#X obj 484 208 klib/k.randgen;
#X obj 43 164 t b b b b;
#X obj 484 230 * 0.3;
#X obj 713 311 r \$1-size;
#X obj 713 333 unpack f f;
#X obj 689 387 klib/k.randgen;
#X obj 803 311 r \$1-size;
#X obj 803 333 unpack f f;
#X obj 779 387 klib/k.randgen;
#X obj 545 324 t b b b;
#X obj 599 409 t f f;
#X obj 599 431 *;
#X obj 599 453 * 50;
#X obj 599 475 + 1;
#X obj 689 409 t f f;
#X obj 689 431 *;
#X obj 689 453 * 50;
#X obj 689 475 + 1;
#X obj 779 409 t f f;
#X obj 779 431 *;
#X obj 779 453 * 50;
#X obj 779 475 + 1;
#X obj 589 644 throw~ \$1-out;
#X obj 43 64 random 100;
#X obj 43 138 sel 1;
#X obj 43 116 <;
#X obj 149 21 r \$1-density;
#X obj 149 43 * 100;
#X obj 67 217 r \$1-size;
#X obj 67 239 unpack f f;
#X obj 43 262 klib/k.randgen;
#X msg 43 399 0 \, 44100 \$1;
#X obj 43 420 line~;
#X obj 43 284 t f f;
#X obj 43 306 *;
#X obj 43 328 * 9500;
#X obj 43 350 + 500;
#X obj 155 419 line~;
#X msg 154 374 1 \, 0 \$1;
#X obj 43 372 t f f;
#X obj 154 352 *;
#X obj 43 464 *~;
#X obj 463 458 r~ \$1-toall;
#X obj 43 442 tabread4~ \$2;
#X obj 169 81 wrap;
#X obj 157 100 -;
#X obj 157 63 t f f;
#X connect 4 0 1 0;
#X connect 4 0 38 0;
#X connect 5 0 9 0;
#X connect 6 0 0 0;
#X connect 6 0 2 0;
#X connect 6 0 3 0;
#X connect 7 0 1 0;
#X connect 7 0 38 0;
#X connect 8 0 1 0;
#X connect 8 0 38 0;
#X connect 9 0 6 0;
#X connect 10 0 12 0;
#X connect 11 0 15 0;
#X connect 12 0 13 1;
#X connect 12 1 13 2;
#X connect 13 0 26 0;
#X connect 14 0 39 0;
#X connect 15 0 16 1;
#X connect 15 1 16 2;
#X connect 16 0 18 0;
#X connect 16 0 56 1;
#X connect 17 0 46 0;
#X connect 17 1 25 0;
#X connect 17 2 16 0;
#X connect 18 0 6 1;
#X connect 19 0 20 0;
#X connect 20 0 21 1;
#X connect 20 1 21 2;
#X connect 21 0 30 0;
#X connect 22 0 23 0;
#X connect 23 0 24 1;
#X connect 23 1 24 2;
#X connect 24 0 34 0;
#X connect 25 0 13 0;
#X connect 25 1 21 0;
#X connect 25 2 24 0;
#X connect 26 0 27 0;
#X connect 26 1 27 1;
#X connect 27 0 28 0;
#X connect 28 0 29 0;
#X connect 29 0 7 0;
#X connect 30 0 31 0;
#X connect 30 1 31 1;
#X connect 31 0 32 0;
#X connect 32 0 33 0;
#X connect 33 0 4 0;
#X connect 34 0 35 0;
#X connect 34 1 35 1;
#X connect 35 0 36 0;
#X connect 36 0 37 0;
#X connect 37 0 8 0;
#X connect 39 0 41 0;
#X connect 40 0 17 0;
#X connect 41 0 40 0;
#X connect 42 0 43 0;
#X connect 43 0 62 0;
#X connect 44 0 45 0;
#X connect 45 0 46 1;
#X connect 45 1 46 2;
#X connect 46 0 49 0;
#X connect 47 0 48 0;
#X connect 48 0 59 0;
#X connect 49 0 50 0;
#X connect 49 1 50 1;
#X connect 50 0 51 0;
#X connect 51 0 52 0;
#X connect 52 0 55 0;
#X connect 53 0 57 1;
#X connect 54 0 53 0;
#X connect 55 0 47 0;
#X connect 55 1 56 0;
#X connect 56 0 54 0;
#X connect 57 0 0 0;
#X connect 57 0 2 0;
#X connect 57 0 3 0;
#X connect 58 0 0 0;
#X connect 58 0 2 0;
#X connect 58 0 3 0;
#X connect 59 0 57 0;
#X connect 60 0 61 1;
#X connect 61 0 41 1;
#X connect 62 0 61 0;
#X connect 62 1 60 0;
