#N canvas 668 315 885 720 10;
#X obj 351 466 delwrite~ \$0-w1 50;
#X obj 351 548 s~ \$0-fb;
#X obj 471 466 delwrite~ \$0-w2 50;
#X obj 591 466 delwrite~ \$0-w3 50;
#X obj 471 526 delread~ \$0-w2 9.1;
#X obj 284 358 r~ \$0-fb;
#X obj 284 410 *~ 0.1;
#X obj 389 330 osc~;
#X obj 448 331 noise~;
#X obj 351 273 line~;
#X obj 388 310 *~ 1000;
#X obj 351 396 *~;
#X obj 351 526 delread~ \$0-w1 3;
#X obj 591 526 delread~ \$0-w3 2;
#X obj 284 380 lop~ 8000;
#X obj 625 252 r \$1-size;
#X obj 510 73 r \$1-resonance;
#X obj 620 73 r \$1-inharmonicity;
#X obj 625 274 unpack f f;
#X obj 601 328 klib/k.randgen;
#X obj 45 13 r \$1-trig;
#X obj 510 95 unpack f f;
#X obj 486 149 klib/k.randgen;
#X obj 620 95 unpack f f;
#X obj 596 149 klib/k.randgen;
#X obj 45 105 t b b b b;
#X obj 486 171 * 0.3;
#X msg 437 287 1 \$1;
#X obj 437 309 -;
#X obj 389 352 *~ 0;
#X obj 448 353 *~ 0;
#X obj 715 252 r \$1-size;
#X obj 715 274 unpack f f;
#X obj 691 328 klib/k.randgen;
#X obj 805 252 r \$1-size;
#X obj 805 274 unpack f f;
#X obj 781 328 klib/k.randgen;
#X obj 547 265 t b b b;
#X obj 601 350 t f f;
#X obj 601 372 *;
#X obj 601 394 * 50;
#X obj 601 416 + 1;
#X obj 691 350 t f f;
#X obj 691 372 *;
#X obj 691 394 * 50;
#X obj 691 416 + 1;
#X obj 781 350 t f f;
#X obj 781 372 *;
#X obj 781 394 * 50;
#X obj 781 416 + 1;
#X obj 591 585 throw~ \$1-out;
#X obj 45 35 random 100;
#X obj 45 79 sel 1;
#X obj 45 57 <;
#X obj 117 13 r \$1-density;
#X obj 117 35 * 100;
#X obj 351 163 random 1000;
#X obj 351 185 * 0.001;
#X msg 351 251 \$1 \, 0 20;
#X obj 351 207 t f f;
#X obj 351 229 *;
#X obj 69 158 r \$1-size;
#X obj 69 180 unpack f f;
#X obj 45 203 klib/k.randgen;
#X msg 45 340 0 \, 44100 \$1;
#X obj 45 361 line~;
#X obj 45 225 t f f;
#X obj 45 247 *;
#X obj 45 269 * 9500;
#X obj 45 291 + 500;
#X obj 157 360 line~;
#X msg 156 315 1 \, 0 \$1;
#X obj 45 313 t f f;
#X obj 156 293 *;
#X obj 45 405 *~;
#X obj 465 399 r~ \$1-toall;
#X obj 45 383 tabread4~ \$2;
#X connect 4 0 1 0;
#X connect 4 0 50 0;
#X connect 5 0 14 0;
#X connect 6 0 0 0;
#X connect 6 0 2 0;
#X connect 6 0 3 0;
#X connect 7 0 29 0;
#X connect 8 0 30 0;
#X connect 9 0 10 0;
#X connect 9 0 11 0;
#X connect 10 0 7 0;
#X connect 11 0 0 0;
#X connect 11 0 2 0;
#X connect 11 0 3 0;
#X connect 12 0 1 0;
#X connect 12 0 50 0;
#X connect 13 0 1 0;
#X connect 13 0 50 0;
#X connect 14 0 6 0;
#X connect 15 0 18 0;
#X connect 16 0 21 0;
#X connect 17 0 23 0;
#X connect 18 0 19 1;
#X connect 18 1 19 2;
#X connect 19 0 38 0;
#X connect 20 0 51 0;
#X connect 21 0 22 1;
#X connect 21 1 22 2;
#X connect 22 0 26 0;
#X connect 22 0 73 1;
#X connect 23 0 24 1;
#X connect 23 1 24 2;
#X connect 24 0 27 0;
#X connect 24 0 30 1;
#X connect 25 0 56 0;
#X connect 25 0 63 0;
#X connect 25 1 37 0;
#X connect 25 2 22 0;
#X connect 25 3 24 0;
#X connect 26 0 6 1;
#X connect 27 0 28 0;
#X connect 28 0 29 1;
#X connect 29 0 11 1;
#X connect 30 0 11 1;
#X connect 31 0 32 0;
#X connect 32 0 33 1;
#X connect 32 1 33 2;
#X connect 33 0 42 0;
#X connect 34 0 35 0;
#X connect 35 0 36 1;
#X connect 35 1 36 2;
#X connect 36 0 46 0;
#X connect 37 0 19 0;
#X connect 37 1 33 0;
#X connect 37 2 36 0;
#X connect 38 0 39 0;
#X connect 38 1 39 1;
#X connect 39 0 40 0;
#X connect 40 0 41 0;
#X connect 41 0 12 0;
#X connect 42 0 43 0;
#X connect 42 1 43 1;
#X connect 43 0 44 0;
#X connect 44 0 45 0;
#X connect 45 0 4 0;
#X connect 46 0 47 0;
#X connect 46 1 47 1;
#X connect 47 0 48 0;
#X connect 48 0 49 0;
#X connect 49 0 13 0;
#X connect 51 0 53 0;
#X connect 52 0 25 0;
#X connect 53 0 52 0;
#X connect 54 0 55 0;
#X connect 55 0 53 1;
#X connect 56 0 57 0;
#X connect 57 0 59 0;
#X connect 58 0 9 0;
#X connect 59 0 60 0;
#X connect 59 1 60 1;
#X connect 60 0 58 0;
#X connect 61 0 62 0;
#X connect 62 0 63 1;
#X connect 62 1 63 2;
#X connect 63 0 66 0;
#X connect 64 0 65 0;
#X connect 65 0 76 0;
#X connect 66 0 67 0;
#X connect 66 1 67 1;
#X connect 67 0 68 0;
#X connect 68 0 69 0;
#X connect 69 0 72 0;
#X connect 70 0 74 1;
#X connect 71 0 70 0;
#X connect 72 0 64 0;
#X connect 72 1 73 0;
#X connect 73 0 71 0;
#X connect 74 0 0 0;
#X connect 74 0 2 0;
#X connect 74 0 3 0;
#X connect 75 0 0 0;
#X connect 75 0 2 0;
#X connect 75 0 3 0;
#X connect 76 0 74 0;
