#N canvas 1376 229 474 633 10;
#X obj 95 271 phasor~ 5;
#X obj 95 347 rpole~ 1;
#X obj 179 304 sig~ 0.1;
#X obj 95 552 delwrite~ \$0-vang 1000;
#X obj 252 356 vd~ \$0-vang;
#X obj 95 119 inlet midinote;
#X obj 252 552 outlet~;
#X obj 252 400 hip~ 1;
#X obj 95 451 *~;
#X obj 322 275 *~ 0.01;
#X obj 322 297 +~ 1;
#X obj 252 327 *~;
#X obj 322 251 inlet~ harmonicMod;
#X obj 95 186 mtof~;
#X obj 95 141 sig~;
#X obj 252 216 sig~ 1000;
#X obj 252 238 /~;
#X obj 95 503 *~;
#X obj 110 481 inlet~ gain;
#X obj 95 369 *~ 0.0001;
#X obj 252 296 *~ 2;
#X obj 159 528 lop~ 4000;
#X obj 252 444 lop~ 4000;
#X obj 95 391 lop~ 1000;
#X obj 252 378 *~ 0.98;
#X obj 252 274 lop~ 4;
#X text 33 23 Single voice for vangelis-inspired synthesiser;
#X text 33 37 Combines a pulse-width modulated squarewave;
#X text 33 51 with a delay line tuned to the same frequency;
#X text 33 64 feeding back into itself. Changing the tuning of;
#X text 33 77 the delay line results in nice trumpet-like effects;
#X text 353 590 @krighxz 2016;
#X obj 381 387 inlet;
#X obj 95 163 lop~ 5;
#X obj 140 325 hv.gte;
#X obj 252 422 hv.tanh;
#X obj 110 430 r~ \$1_gain;
#X obj 24 142 r~ \$1_fmod;
#X connect 0 0 1 0;
#X connect 0 0 34 0;
#X connect 1 0 19 0;
#X connect 2 0 34 1;
#X connect 4 0 24 0;
#X connect 5 0 14 0;
#X connect 7 0 35 0;
#X connect 8 0 17 0;
#X connect 9 0 10 0;
#X connect 10 0 11 1;
#X connect 11 0 4 0;
#X connect 12 0 9 0;
#X connect 13 0 0 0;
#X connect 13 0 16 1;
#X connect 14 0 33 0;
#X connect 15 0 16 0;
#X connect 16 0 25 0;
#X connect 17 0 3 0;
#X connect 18 0 17 1;
#X connect 19 0 23 0;
#X connect 20 0 11 0;
#X connect 21 0 3 0;
#X connect 22 0 6 0;
#X connect 23 0 8 0;
#X connect 24 0 7 0;
#X connect 24 0 21 0;
#X connect 25 0 20 0;
#X connect 32 0 23 1;
#X connect 33 0 13 0;
#X connect 34 0 1 1;
#X connect 35 0 22 0;
#X connect 36 0 8 1;
#X connect 37 0 13 0;
